<svg id="Layer_1" data-name="Layer 1" xmlns="http://www.w3.org/2000/svg" viewBox="0 0 1081.53 744.56"><defs><style>.cls-1{fill:#01b2e6;}.cls-2{fill:#a6b3c3;}.cls-3{fill:#015686;}.cls-4{fill:#90a1c0;}.cls-5{fill:#91a1c1;}.cls-6{fill:#99a8c5;}.cls-7{fill:#97a6c4;}</style></defs><path class="cls-1" d="M621.57,466.36c5.67-8.51,12.1-16.46,17.39-25.27A188.05,188.05,0,0,0,664.6,368.7c6.68-49.73-5.1-94.67-35.79-134.48-4.95-6.42-5.09-6.43,2.28-10.39,21.94-11.77,43.95-23.4,65.85-35.25,3.47-1.88,4.8-.72,6.42,2.34a218.7,218.7,0,0,1,21.69,60.39,197.89,197.89,0,0,1,3.4,44.15c-.05,1.48,0,3,0,4.92,13.18-6.27,26.4-7.11,39.39-.77a41.05,41.05,0,0,1,19.79,20.13c9.29,20.13,1.65,42.53-15.16,52.73-18.81,11.42-41,6.86-56.83-12.16-3.15,6.44-5.67,12.95-8.75,19.18-16.69,33.85-41.36,60.4-72.79,80.86-3.83,2.5-7.42,5.58-12.17,6.35Z"/><path class="cls-2" d="M646.51,333.54c-6.83-11.22-13.33-22.51-21.6-32.73-16.94-20.91-37.75-36.66-62-48a167.55,167.55,0,0,0-44-13.64A180.92,180.92,0,0,0,463,238.2a233.87,233.87,0,0,0-33.83,7.61c-2.91.88-3.91.29-4.2-2.65-1.76-17.63-4-35.2-5-52.9-.45-7.74-1.76-15.44-2.74-23.16-.48-3.74-.46-6,4.69-6.95,13.44-2.45,26.89-4.22,40.5-3.38a173.81,173.81,0,0,1,63.22,15.69c5.94,2.76,5.91,2.77,6.18-3.7.88-21.83,21-39.37,42.18-39.52,22.37-.17,42.37,19,41.71,42.17-.45,15.67-11.32,31.48-25.79,37.27a22.32,22.32,0,0,1-3.2,1.37c-3.26.74-3.24,1.87-1,4.13a223.08,223.08,0,0,1,36.4,48.92,218.7,218.7,0,0,1,19.61,48.22A167.65,167.65,0,0,1,646.51,333.54Z"/><path class="cls-3" d="M396.89,282.66c42.92-18.56,86.76-23.77,133-15.73-6.07,2.56-11.78,2.45-17.22,3.48a170.78,170.78,0,0,0-70.88,31.16A177.42,177.42,0,0,0,388,366c-9.42,18.9-15.78,38.84-17.87,60a11.58,11.58,0,0,1-.55,2.94c-1,2.74,1.2,6.84-1.45,8.15-1.92.94-5.29-1-8-1.72-22.44-6-44.85-12.15-67.33-18-3.88-1-2.94-3.38-2.34-5.48a206.66,206.66,0,0,1,23.61-54.3c8.27-13.18,17.6-25.54,28.78-36.41,2.72-2.65,1.15-3.38-1.32-4.21-14.23-4.8-23.13-14.53-27.17-29-4.81-17.18,5.59-38.71,22.6-46,21.19-9.12,46-2.07,56.27,20.14A40,40,0,0,1,396.89,282.66Z"/><path class="cls-3" d="M652.45,546.75c17.78,25,9.7,46.13-4.64,59.15-13.87,12.6-37.18,12.51-52,.07-13.15-11-22.8-33.62-5.54-58.17-44.49-8.41-82.79-28.4-114.53-60.76A238.2,238.2,0,0,0,501.86,498c25,8.36,50.42,11.63,76.82,7.89a183.51,183.51,0,0,0,76.62-28.76,177.9,177.9,0,0,0,42.21-38.71c2.21-2.82,3.27-3.43,6-.12q22.78,28,46.16,55.5c2.37,2.81,1.78,3.93-.77,6.15-24.49,21.35-52.73,35.49-83.85,44.13C661,545.19,656.75,545.84,652.45,546.75Z"/><path class="cls-1" d="M414.3,533.22c-8.63,11.81-19.56,18.71-34.46,18.38-8.81-.2-16.65-2.74-23.34-8.23-15.3-12.54-18.91-32.37-9.45-50.11,9.2-17.25,28.17-23.09,51.91-15.67-4.9-47.53,5.12-91.38,31.3-132,1.26,2.17.21,3.57-.1,5s-.75,2.9-1,4.38c-3.83,26.05-3.66,52.08,3.13,77.58,11.24,42.2,34.29,76.33,71.27,100.28,7.46,4.83,15.28,9.3,23.78,12,4.2,1.36,3.77,2.92,1.81,5.83q-17.13,25.54-34.12,51.18c-2.46,3.7-4.87,7.44-7.32,11.16-1.2,1.8-2.16,2.8-4.66,1.09-28.6-19.49-51.22-44.15-66-75.68C416.3,536.87,415.41,535.32,414.3,533.22Z"/><path class="cls-4" d="M635.46,395.28c-1.31,29.12-12.66,54.5-36.53,73.93-12.76,10.39-27.21,16.72-43.2,19.93-2.79.55-5,.57-5.67-2.83-.61-3.15,1.79-2.95,3.79-3.88,7-3.25,13.5-7.22,20.87-10,7.78-3,9.31-13.89,5.17-21.32-1.77-3.19,1.28-4.16,2.73-5.34,5.6-4.57,6.1-10.28,4.51-16.68-.49-2-1.14-4.07-3.59-4.14-2.29-.07-2.79,2-3.37,3.73-1.21,3.74-3.74,7.21-4.77,10.52-1.23,4-3.47,7.61-4.23,11.57-.86,4.54-3.24,7.28-7.4,5.32-3.92-1.84-7.67-1.82-11.62-1.43-3.31.33-5.16-1.06-5.33-4.33-.19-3.76-.8-6.31-5.49-7.4-2.89-.67-2.89-5.19-2.19-8.2.74-3.22,2.15-6.08.32-9.57-1.22-2.33,1.64-3.48,3.19-4.3a33,33,0,0,0,11.9-10.17c2.53-3.58,3.5-7.53,4.4-11.5,1-4.44,3.51-7.34,7.15-9.67,1.81-1.16,3.8-2.52,3.42-5-.34-2.3-2.22-3-4.41-3.26-1.88-.2-2.84-1.54-3.09-3.39a10.28,10.28,0,0,0-.38-2.45c-3.13-7.47-3.08-7.37,3.35-11.78,2.61-1.81,4.29-1.4,5.47,1.37.85,2,1.5,4.05,2.22,6.09a3.09,3.09,0,0,0,3.85,2.3c1.71-.37,2.84-1.75,2.34-3.28-2.11-6.45.46-12.82,0-19.2-.32-4.31,1.53-6.4,5.58-7.33,3.52-.79,6.84-2.21,10.6-2.07,2,.07,3.63-1.16,1.74-3.59-1.5-1.93-1.8-4.4-3.32-6.46-2.23-3,0-8.12,4.25-11,3.25-2.23,4.84.66,6.68,2.34,16.66,15.25,26,34.5,30.09,56.41C635.39,384,635.12,389.08,635.46,395.28Zm-56.63,0c2.46.57,4.54.75,6.48,1.82s3,1.87,2.61,4.06c-.67,4,1.34,5.7,5,6.56,2.71.63,5.38,1.6,6.59,4.64,1.62,4,3.45,4.39,6.71,1.37,4.95-4.59,7-10.13,5.52-16.88-1-4.5-7.77-7.22-11.41-4.43-5.27,4-9.64,3.19-13.44-2.41-.84-1.23-1.16-3.56-3.34-3.15s-2.36,2.37-2.68,4.25C580.64,392.32,579.76,393.41,578.83,395.27Zm37.79-10.43c.7-5.31-2.7-9.52-7.18-13.31-1.28-1.08-2.25-3-4-1.66-1.58,1.16-.59,2.92,0,4.52,1.52,4.52,2.46,9.21,6.2,12.76,1,1,.25,4.14,2.81,3.66C616.74,390.37,616.66,387.89,616.62,384.84Zm-21.93-20c-.06-3.33-3.41-7.66-5.51-7.12-2.62.68-3.26,3.17-3.47,5.5-.26,2.81,3.43,5.33,7.23,5C595.6,368.06,594.58,366,594.69,364.87Z"/><path class="cls-5" d="M497.37,372.4c-6.12-3.91-14,0-20.83-3.5-2.62-1.35-5.18-.48-7.54,1-2.86,1.82-5.07,3-7.56-1.24-2.29-3.88-6.62-2.2-10-.83s-3,4-1.53,6.69c.75,1.43,2.14,3.36.45,4.49a20.93,20.93,0,0,1-7.31,2.79c-1.11.23-.87-1.48-.71-2.41a97.85,97.85,0,0,1,16-40.74c13.14-19,31-31.43,52.75-38.46a96.11,96.11,0,0,1,11.09-2.46c3.36-.66,3.48,2.13,3.56,4.08.09,2.32.6,4.61.64,6.87.12,5.66,3.11,8.59,8.19,9.68,1.77.38,2.33,1.7,3.35,2.7,1.17,1.16,2.11,3.29,3.72,3.1,5.86-.68,9.21,3.25,13.33,6.19,2,1.4,1.69,2,1,3.82-1.95,5.53-6.77,9-9.49,14-.15.28-.52.44-.69.71-2,3.32-3.52,6.74-8.65,3.58-2.24-1.38-4.43,1.44-6.16,3.26-4.28,4.5-8.1,4.05-10.75-1.65a22.32,22.32,0,0,0-7.59-9.49c-2.49-1.71-3.82-1.29-5,1.32a53.13,53.13,0,0,1-3.12,6.22c-1.51,2.5-2.05,4.53.2,7.15s1.48,6,.12,9S500.85,371.93,497.37,372.4Zm-8.57-31.83a19.88,19.88,0,0,1,3.06-.29c5.1.13,7.32-5,11.14-6.35,5.77-2.09,1.64-7.36,4.44-10.07.19-.18-1.23-1.55-2.31-1.23-8.12,2.41-15.42,5.95-19.37,14.14C484.33,339.75,485.42,340.76,488.8,340.57Zm30.06-4.16c2.7.69,3.54-2.19,5.62-2.7,2.71-.65,5.24-1.74,3.58-5.43-1.56-3.46-3.94-4.27-7.6-3-4.53,1.55-5.64,6.72-9.79,8.61-.88.39-.58,1.78.09,2.65a2,2,0,0,0,2.64.59C515.19,336.28,516.92,335.14,518.86,336.41Z"/><path class="cls-5" d="M476.93,397.41c0,4-3.94,9.8-7.81,11.24-1.61.6-3.19.93-3.28,3.11s1.25,3,2.81,3.67c3.17,1.41,3.63,3.81,3.12,7-.95,5.92,1.31,7.91,6.58,5.85,1.88-.74,2.85-.34,3.54,1.29,1.07,2.59,3,4.84,3,7.87,0,1,0,2.34.63,2.85,5.83,5,8.27,13.92,17.36,15.19,4.82.68,5.24,3.59,3.91,7.57a3.64,3.64,0,0,1-2.7,2.57c-1.88.59-3.29,1.79-3.21,3.92s1.38,3.29,3.11,4.19a35.08,35.08,0,0,1,3.87,2.2c4,2.77.79,5.83-.15,8.38-1,2.77-3.13.31-4.53-.24-28-11.08-46.53-31.37-56.77-59.39-1.45-4-3.77-8.36-2-12.81,1.64-4.19,4.94-6.63,9.76-6.24,5,.41,8.4-1.74,9.72-6.62,1.05-3.91,4.42-5.29,7.36-6.91S476.92,393.42,476.93,397.41Z"/><path class="cls-6" d="M449.6,400.07c1.9-3.18,2.62-5.72-1.71-7-2.12-.64-1.46-2.31-.63-3.64,2.41-3.84,6.41-5.73,10.28-7.37,2.6-1.11,3.63,1.9,4.24,3.74C463.79,391.91,456.73,400.49,449.6,400.07Z"/><path class="cls-7" d="M579.91,310.53c-1.89-5.94,1.37-4.11,4-2.77a67.75,67.75,0,0,1,6.35,3.79c3.86,2.51,3.89,6.92.15,9.81-1.23.94-2.45,1.66-2.54-.74-.14-3.52-3.15-5.06-5.37-5.74C579.59,314,578.52,313.26,579.91,310.53Z"/><path class="cls-6" d="M579.46,331.45c-.31-2.55,2-2,3.27-2.17,3.29-.47,3.91,2.47,3.79,4.43-.07,1.23.54,4.44-2.53,4.28C580,337.77,579.7,334.65,579.46,331.45Z"/><path class="cls-1" d="M621.92,466.7c-.16.44-.49.93-.89.5s.11-.71.54-.84Z"/></svg>