<?xml version="1.0" encoding="UTF-8" standalone="no"?>
<!-- Created with Inkscape (http://www.inkscape.org/) -->

<svg
   width="210mm"
   height="210mm"
   viewBox="0 0 210 210"
   version="1.1"
   id="svg5"
   inkscape:version="1.2.2 (b0a8486541, 2022-12-01)"
   sodipodi:docname="drawing.svg"
   xmlns:inkscape="http://www.inkscape.org/namespaces/inkscape"
   xmlns:sodipodi="http://sodipodi.sourceforge.net/DTD/sodipodi-0.dtd"
   xmlns="http://www.w3.org/2000/svg"
   xmlns:svg="http://www.w3.org/2000/svg">
  <sodipodi:namedview
     id="namedview7"
     pagecolor="#ffffff"
     bordercolor="#eeeeee"
     borderopacity="1"
     inkscape:showpageshadow="false"
     inkscape:pageopacity="0"
     inkscape:pagecheckerboard="0"
     inkscape:deskcolor="#ffffff"
     inkscape:document-units="mm"
     showgrid="false"
     inkscape:zoom="0.59969163"
     inkscape:cx="421.8835"
     inkscape:cy="421.8835"
     inkscape:window-width="1366"
     inkscape:window-height="731"
     inkscape:window-x="0"
     inkscape:window-y="0"
     inkscape:window-maximized="1"
     inkscape:current-layer="layer1" />
  <defs
     id="defs2">
    <clipPath
       clipPathUnits="userSpaceOnUse"
       id="clipPath12605">
      <path
         id="path12607"
         style="fill:#ff0000;fill-opacity:1;fill-rule:nonzero;stroke:none;stroke-width:0.264583"
         d="m -3.4680054,102.41184 v 72.69788 c 5.3637263,-1.13617 10.7703297,-2.06287 16.1829914,-2.94969 5.244107,-3.72361 10.620664,-7.26231 16.112712,-10.61589 5.189866,-3.01953 8.385405,-4.99144 13.824479,-7.6786 6.235097,-3.08031 12.800061,-5.45034 19.508886,-7.25692 6.1043,-1.48261 12.290666,-2.67002 18.577679,-2.6603 0.898125,0.001 1.798283,0.0272 2.70061,0.0801 7.982881,0.4711 15.882025,1.7253 23.631118,3.72535 4.4286,1.1282 5.86785,1.46112 10.36732,2.75332 1.75215,0.50319 3.49618,1.03195 5.23689,1.572 3.76961,-1.17529 7.49026,-2.50763 11.18898,-3.89227 4.68572,-1.78645 9.32855,-3.70666 14.1733,-5.03742 1.63494,-0.44908 3.29039,-0.81899 4.93561,-1.22835 6.17464,-1.39728 12.43617,-2.34963 18.58957,-3.83956 5.38056,-1.39041 10.69025,-3.03323 16.06258,-4.4545 5.90471,-1.48199 11.96914,-2.35481 18.05213,-2.39727 2.0277,-0.0142 4.05775,0.0637 6.08438,0.24236 1.71956,0.15159 3.42513,0.43376 5.13768,0.6506 7.98933,1.48477 15.59024,4.60738 21.91339,9.79579 4.15996,3.4135 5.03294,4.89668 8.2119,8.88783 3.46283,5.02701 5.72829,10.40265 6.87917,16.17576 3.81247,0.24773 7.62529,0.49513 11.43805,0.73794 V 102.41184 Z M 237.17725,222.1668 c -7.0273,6.06419 -15.15077,7.9637 -22.35419,6.16448 -2.15223,5.44715 -4.3677,10.86472 -7.06933,16.05329 -0.60566,1.16314 -6.03865,3.19718 -7.79488,4.20077 -5.82378,3.03372 -11.56698,6.221 -17.26819,9.47849 -4.42131,2.53401 -8.87452,5.00919 -13.34234,7.45795 0.99908,2.47402 0.76008,4.78412 -0.32039,7.36907 0.17787,0.17246 0.35302,0.33962 0.53226,0.51417 3.37878,3.62992 6.48059,7.5384 9.05268,11.78584 1.79824,2.96955 2.03071,3.60288 3.53467,6.65593 1.79835,4.23993 0.98248,2.16437 2.46806,6.21874 12.43897,33.94562 -7.20575,54.27242 -26.67485,49.64864 -2.03037,5.38385 -3.73925,9.37641 -8.57054,15.11433 -0.73886,0.87751 -1.50284,1.72915 -2.27996,2.56677 -0.004,0.0358 -0.007,0.0728 -0.0114,0.10851 -0.50668,4.5539 -2.37311,8.86481 -3.95635,13.16458 -0.8829,2.39781 -1.92502,4.69548 -3.05098,6.94634 1.43182,7.10745 -0.50955,15.43587 -6.68796,23.40375 12.81986,36.89871 9.31755,28.42953 -0.84749,1.0609 -4.13155,4.99814 -9.96036,9.82525 -17.70745,14.08493 -2.75279,1.51363 -1.29238,0.7089 -4.37906,2.41589 -3.67542,2.0316 -7.35581,4.05672 -11.057721,6.04046 3.095421,0.64646 6.187871,1.30778 9.292971,1.90582 10.5021,2.02269 21.26551,3.25586 31.60996,6.0198 1.04875,0.28022 2.06778,0.66241 3.10162,0.99372 2.12534,0.68115 4.12522,1.4083 6.0265,2.16834 H 265.34142 V 223.98788 c -6.90291,-0.43532 -13.80515,-0.88167 -20.70726,-1.33222 -2.48514,-0.16959 -4.97146,-0.32306 -7.45691,-0.48886 z M 33.450154,403.95932 c -0.39243,0.007 -0.747371,0.005 -1.126545,0.009 -0.01831,0.007 -0.03643,0.0143 -0.05478,0.0217 0.158848,0.44093 0.394729,0.85685 0.673859,1.25058 0.153879,-0.42637 0.332256,-0.85373 0.507463,-1.28106 z" />
    </clipPath>
    <clipPath
       clipPathUnits="userSpaceOnUse"
       id="clipPath14341">
      <path
         id="path14343"
         style="fill:#ff0000;fill-opacity:1;fill-rule:nonzero;stroke:none;stroke-width:0.264583"
         d="m -3.4680054,406.35245 v 37.35123 H 63.055585 v -0.62632 c -28.15789,-12.19446 23.033587,-4.12382 -26.102802,-9.32553 -32.1394917,-8.12165 -2.344185,3.36738 -26.698112,-20.29283 -3.5673773,-3.46577 -9.0602831,-4.17091 -13.2777422,-6.80733 -0.1517499,-0.0949 -0.2958121,-0.20063 -0.4449342,-0.29922 z" />
    </clipPath>
    <clipPath
       clipPathUnits="userSpaceOnUse"
       id="clipPath14391">
      <path
         id="path14393"
         style="fill:#ff0000;fill-opacity:1;fill-rule:nonzero;stroke:none;stroke-width:0.264583"
         d="m 4.9340659,410.1977 v 28.6091 H 55.074159 c -6.963487,-5.78178 23.562537,-0.6422 -18.121376,-5.05497 -32.1394917,-8.12165 -2.344185,3.36738 -26.698112,-20.29283 -1.5080016,-1.46505 -3.3662439,-2.42845 -5.3206051,-3.2613 z" />
    </clipPath>
    <clipPath
       clipPathUnits="userSpaceOnUse"
       id="clipPath14572">
      <path
         id="path14574"
         style="fill:#ff0000;fill-opacity:1;fill-rule:nonzero;stroke:none;stroke-width:0.264583"
         d="M -61.104796,7.1561523 V 176.69774 H 81.736613 c 0.02246,-0.0358 0.03598,-0.0752 0.06201,-0.10955 0.638929,-0.84396 2.014537,-0.7192 2.891811,-1.31155 3.465404,-2.33991 0.198421,-2.56907 4.666898,-0.99787 0.493355,-1.0779 0.490085,-2.58125 1.480013,-3.2334 0.676815,-0.44587 1.550596,0.3798 2.372982,0.51573 0.01931,-0.0984 0.0401,-0.16904 0.06201,-0.25631 0.190426,-1.24628 0.155019,-0.89677 1.550294,-2.86908 5.401709,0.22512 0.508037,0.66749 5.354189,-1.9575 0.68995,-0.37372 1.51957,-0.41278 2.29805,-0.51108 0.46772,-0.059 1.06952,0.36491 1.41335,0.0424 2.34698,-2.2018 -2.41891,-0.91647 1.14515,-1.58906 1.60429,-1.46091 3.45956,0.40621 5.0829,-0.0796 1.14167,-0.34165 1.79769,-1.6615 2.9192,-2.06447 0.66932,-0.2405 1.41209,0.16945 2.11821,0.25425 1.28926,-0.2054 2.6453,-0.15836 3.86799,-0.61599 1.87652,-0.70233 3.53949,-1.87891 5.30923,-2.81843 2.01685,0.59498 3.94816,1.73241 6.05028,1.78491 1.81459,0.0453 3.43816,-1.23775 5.23379,-1.50327 1.57201,-0.23251 3.17888,0.0561 4.76767,0.0243 1.24585,-0.0249 2.50789,-0.42165 3.7331,-0.19431 5.93224,1.10076 -1.14505,2.26598 5.15886,0.63924 0.62939,-0.17474 1.35807,-0.1739 1.99058,-0.34313 -0.0518,-0.1116 -0.0643,-0.22091 0.005,-0.29249 0.33397,-0.34414 0.79466,-0.5379 1.26298,-0.71985 0.45174,-0.93315 0.39262,-2.24805 1.21749,-2.86804 0.50157,-0.37696 0.92726,1.27761 0.57051,1.79368 -0.39822,0.57608 -1.1041,0.80864 -1.788,1.07436 -0.0999,0.20626 -0.216,0.40002 -0.38189,0.55655 -0.24867,0.23463 -0.55521,0.36721 -0.88625,0.45579 0.11149,0.24009 0.42409,0.49319 0.62528,0.41858 1.26309,-0.46845 2.26058,-1.46554 3.39101,-2.19832 1.09801,-0.54571 2.12241,-1.27493 3.29385,-1.63711 1.27003,-0.39267 2.63377,-0.36962 3.94292,-0.60048 1.10233,-0.19438 2.21765,-0.35128 3.2892,-0.67489 1.47578,-0.4457 2.86337,-1.15124 4.32997,-1.62626 1.22728,-0.3975 2.49753,-0.64776 3.74189,-0.98805 1.1996,-0.32804 2.39287,-0.67759 3.58944,-1.01648 1.91107,-0.0619 3.22746,-0.0954 4.11138,-0.11213 -2.01334,-0.0573 -4.5313,-0.38547 2.66444,-1.8123 1.17766,-0.23351 2.38388,0.69832 3.56722,0.49558 1.13048,-0.19368 1.88558,-1.60756 3.03238,-1.62626 7.29882,-0.11915 0.69198,3.54461 5.76605,0.0599 0.39649,0.0293 0.88045,0.33785 1.18959,0.0879 0.3872,-0.31313 1.04953,-2.88604 1.83142,-3.0639 1.21918,-0.27732 2.50112,0.41795 3.74189,0.26355 1.14412,-0.14238 2.17792,-0.75681 3.26698,-1.13533 0.62123,-0.21591 1.24273,-0.43214 1.86397,-0.64802 1.5363,-0.48981 0.62645,2.18628 1.54409,2.30838 0.90757,0.12077 1.33649,-1.26221 2.08928,-1.78335 0.98223,-0.67997 1.9238,-1.57278 3.09542,-1.80609 0.24757,-0.0493 0.53015,-0.074 0.83871,-0.0786 2.15985,-0.032 5.59688,0.92178 7.27449,1.31207 1.7505,-0.21373 3.50828,-0.9089 5.25136,-0.64131 6.18308,0.94917 10.74528,4.95915 14.07149,10.1198 1.33529,-0.0569 2.67059,-0.11368 4.00596,-0.17054 3.49593,1.8651 7.26668,3.0507 11.02516,4.26021 V 7.1561523 Z M 93.272343,171.30479 c -0.0105,0.0687 -0.02907,0.17913 -0.04134,0.2589 0.07041,0.0106 0.14138,0.0254 0.210841,0.0243 0.196678,-0.003 -0.0077,-0.7647 -0.08527,-0.58395 -0.03004,0.07 -0.05672,0.19117 -0.08423,0.30076 z m -0.04134,0.2589 c -0.0069,-0.001 -0.01376,-0.001 -0.02066,-0.003 -0.105831,0.5392 -0.168802,1.15353 -0.11162,0.82631 0.06898,-0.39474 0.09324,-0.56988 0.132292,-0.82372 z" />
    </clipPath>
    <clipPath
       clipPathUnits="userSpaceOnUse"
       id="clipPath14622">
      <path
         id="path14624"
         style="fill:#ff0000;fill-opacity:1;fill-rule:nonzero;stroke:none;stroke-width:0.264583"
         d="m 143.99948,102.41184 v 40.95305 h 69.30791 c 0.59874,-0.4292 1.21873,-0.81528 1.92547,-0.95601 0.24757,-0.0493 0.53015,-0.074 0.83871,-0.0786 1.75936,-0.026 4.31894,0.58982 6.13192,1.03456 h 2.69493 c 1.23521,-0.26223 2.47069,-0.55237 3.699,-0.3638 0.59079,0.0907 1.16132,0.21893 1.72289,0.3638 h 35.02111 v -40.95305 z" />
    </clipPath>
    <clipPath
       clipPathUnits="userSpaceOnUse"
       id="clipPath14644">
      <path
         id="path14646"
         style="fill:#ff0000;fill-opacity:1;fill-rule:nonzero;stroke:none;stroke-width:0.264583"
         d="M -51.745163,5.525244 V 203.23514 c 2.580307,-4.924 8.192939,-7.75704 17.331243,-6.03374 1.932508,0.36443 3.840691,0.89855 5.797579,1.09347 3.48635,0.34726 5.640396,-0.25827 9.059912,-0.6444 1.623525,-0.18333 3.255445,-0.4004 4.88704,-0.41858 -0.02118,-0.0833 0.101996,-0.40708 0.214457,-0.37724 0.05777,0.0153 0.109818,0.0443 0.164848,0.0662 0.284309,-0.34723 0.524805,-0.77226 0.935344,-0.77153 3.8627902,0.0101 -0.732426,2.64146 2.714563,0.21911 0.204748,1.80526 1.425339,0.97158 2.0370846,0.64853 -0.2659055,-0.35322 -0.4989195,-0.72352 -0.6252848,-1.14256 -0.1055944,-0.35016 0.7584511,0.0267 1.0779704,0.20464 0.7767392,0.4326 1.2762955,1.38868 2.1425048,1.58905 0.8977083,0.20766 1.8164895,-0.30876 2.7248983,-0.46302 0.8218236,0.21741 1.6190785,0.73125 2.46548253,0.65215 0.66889044,-0.0625 1.07091125,-0.88772 1.72444256,-1.04334 0.33995461,-0.081 0.62689731,0.47896 0.96789961,0.40256 0.3275228,-0.0734 0.317982,-0.78305 0.6531901,-0.76585 3.2848572,1.18407 1.6696366,0.92893 4.8167603,0.93793 1.7789065,1.53455 2.9564326,-2.43204 4.3780276,-1.75907 0.817927,0.38719 0.39789,1.7842 0.802535,2.59364 0.125353,0.25075 0.596964,0.69654 0.715201,0.44235 0.241306,-0.51873 -0.473699,-1.25883 -0.12454,-1.71204 0.319045,-0.41412 0.167001,1.03219 0.250631,1.54823 0.09141,-0.14719 0.121636,-0.52312 0.274402,-0.44132 0.174323,0.0933 0.318389,0.18136 0.448551,0.26614 0.02126,-0.42569 0.195796,-0.9995 0.683679,-1.76889 0.370446,-0.58418 -0.129888,1.58753 0.395842,2.03709 0.32913,0.28145 0.593598,-0.63983 0.948262,-0.88832 0.784365,-0.54956 1.63531,-0.99652 2.453081,-1.495 3.044303,-0.4662 2.624495,-0.66154 5.334041,-0.25683 0.427867,0.0639 0.84423,0.42226 1.260905,0.30592 0.876953,-0.24487 1.521505,-1.04685 2.388486,-1.32498 0.935786,-0.30017 1.949246,-0.25292 2.923852,-0.37931 1.168916,-0.38368 2.337845,-0.76766 3.506761,-1.15135 1.61797,0.34598 3.204824,1.17177 4.853967,1.03818 2.740485,-1.18732 4.414131,-2.28449 7.398517,-2.35179 1.227651,-0.0277 2.438744,0.289 3.658174,0.43356 1.303877,0.0848 2.60604,0.29967 3.911907,0.25477 1.14735,-0.0394 2.270927,-0.33734 3.406508,-0.50591 1.978864,-0.18555 3.297671,-0.45496 5.232757,-0.15245 0.781704,0.1222 1.534033,0.68298 2.303219,0.65836 1.185953,-4.31214 4.974873,-8.00282 12.209074,-9.91413 2.80126,-0.7401 3.31098,-0.14882 4.338235,-3.10627 0.351086,-1.01077 -0.144079,-2.31776 0.50178,-3.17086 0.638926,-0.84396 2.01454,-0.7192 2.891811,-1.31155 3.465401,-2.33991 0.198427,-2.56907 4.666898,-0.99787 0.493355,-1.0779 0.490088,-2.58125 1.480013,-3.2334 0.676815,-0.44587 1.550599,0.3798 2.372982,0.51573 -0.105712,0.53896 -0.168767,1.15281 -0.11162,0.82579 0.06894,-0.39449 0.09328,-0.56961 0.132292,-0.8232 -0.0069,-0.001 -0.01378,-0.001 -0.02066,-0.003 0.01929,-0.0981 0.04015,-0.1687 0.06201,-0.2558 0.190426,-1.24628 0.155019,-0.89677 1.550294,-2.86908 5.401714,0.22512 0.50804,0.66749 5.354194,-1.9575 0.68995,-0.37372 1.51957,-0.41278 2.29805,-0.51108 0.46772,-0.059 1.06952,0.36488 1.41335,0.0424 2.34698,-2.2018 -2.4189,-0.91647 1.14515,-1.58906 1.60429,-1.4609 3.45956,0.40623 5.0829,-0.0796 1.14166,-0.34165 1.79769,-1.6615 2.9192,-2.06447 0.66932,-0.2405 1.4121,0.16945 2.11821,0.25425 1.28926,-0.2054 2.6453,-0.15836 3.86799,-0.61599 1.87651,-0.70232 3.53949,-1.87891 5.30923,-2.81843 2.01685,0.59498 3.94816,1.73241 6.05028,1.78491 1.81459,0.0453 3.43816,-1.23775 5.23379,-1.50327 1.57201,-0.23251 3.17888,0.0561 4.76767,0.0243 1.24584,-0.0249 2.50789,-0.42165 3.7331,-0.19431 5.93224,1.10076 -1.14504,2.26598 5.15886,0.63924 0.62939,-0.17474 1.35807,-0.1739 1.99058,-0.34313 -0.0518,-0.1116 -0.0641,-0.22091 0.005,-0.29249 0.33397,-0.34414 0.79466,-0.5379 1.26297,-0.71985 0.45174,-0.93315 0.39262,-2.24805 1.21749,-2.86804 0.50158,-0.37696 0.92727,1.27762 0.57052,1.79368 -0.39822,0.57608 -1.10411,0.80864 -1.78801,1.07436 -0.0999,0.20626 -0.21599,0.40002 -0.38188,0.55655 -0.24867,0.23463 -0.55521,0.36721 -0.88626,0.45579 0.11149,0.24009 0.42409,0.49319 0.62529,0.41858 1.26309,-0.46845 2.26057,-1.46554 3.391,-2.19832 1.09801,-0.54571 2.12242,-1.27493 3.29386,-1.63711 1.27002,-0.39267 2.63377,-0.36962 3.94291,-0.60048 1.10232,-0.19438 2.21765,-0.35128 3.28921,-0.67489 1.47578,-0.4457 2.86336,-1.15124 4.32997,-1.62626 1.22728,-0.3975 2.49752,-0.64776 3.74188,-0.98805 1.19961,-0.32804 2.39289,-0.67759 3.58944,-1.01648 1.91107,-0.0619 3.22747,-0.0954 4.11139,-0.11213 -2.01335,-0.0573 -4.53129,-0.38547 2.66444,-1.8123 1.17766,-0.23351 2.38388,0.69832 3.56722,0.49558 1.13048,-0.19368 1.88558,-1.60756 3.03238,-1.62626 7.2988,-0.11915 0.69199,3.54465 5.76604,0.0599 0.3965,0.0293 0.88046,0.3378 1.18959,0.0879 0.38721,-0.31313 1.04954,-2.88604 1.83143,-3.0639 1.21916,-0.27732 2.50112,0.41795 3.74188,0.26355 1.14412,-0.14238 2.17793,-0.75681 3.26698,-1.13533 0.62124,-0.21591 1.24274,-0.43214 1.86398,-0.64802 1.5363,-0.48981 0.62644,2.18628 1.54409,2.30838 0.90757,0.12077 1.33649,-1.26221 2.08928,-1.78335 0.98223,-0.67997 1.9238,-1.57278 3.09542,-1.80609 0.24756,-0.0493 0.53014,-0.0739 0.8387,-0.0786 2.15985,-0.032 5.59689,0.92178 7.2745,1.31207 1.75049,-0.21373 3.50828,-0.9089 5.25136,-0.64131 6.18306,0.94917 10.74528,4.95915 14.07148,10.1198 1.3353,-0.0569 2.67059,-0.11367 4.00597,-0.17054 7.16816,3.82427 15.49065,4.79351 22.49731,8.96431 2.80217,1.66801 6.01199,3.03929 8.01036,5.6162 2.79887,3.60895 3.95063,8.23537 5.92574,12.35325 6.77363,14.12222 -10.09607,15.21848 -25.72554,14.20947 5.1808,20.35479 -14.22775,30.82347 -28.87989,21.77283 -1.32882,3.61849 -3.32526,7.22524 -5.99757,10.49962 h 64.65134 V 5.525244 Z M 93.272343,171.30479 c -0.01048,0.0686 -0.02907,0.17865 -0.04134,0.25838 v 5.3e-4 c 0.07041,0.0106 0.14138,0.0254 0.210841,0.0243 0.196675,-0.003 -0.0077,-0.7647 -0.08527,-0.58395 -0.03004,0.07 -0.05672,0.19117 -0.08423,0.30076 z M -14.290084,196.9208 c -0.09886,0.12073 -0.204436,0.229 -0.322978,0.30954 0.303374,-0.002 0.606713,0.005 0.910022,0.0186 -0.186038,-0.13236 -0.379857,-0.24596 -0.587044,-0.32814 z m -0.322978,0.30954 c -0.01878,1.5e-4 -0.03755,10e-4 -0.05633,0.002 0.0049,0.0194 0.01549,0.0301 0.03824,0.0155 0.0067,-0.004 0.01147,-0.0126 0.01809,-0.017 z" />
    </clipPath>
    <clipPath
       clipPathUnits="userSpaceOnUse"
       id="clipPath14654">
      <path
         id="path14656"
         style="fill:#ff0000;fill-opacity:1;fill-rule:nonzero;stroke:none;stroke-width:0.264583"
         d="M -41.297738,21.370272 V 196.77972 c 2.024882,-0.18143 4.311986,-0.0633 6.883818,0.42168 1.932508,0.36443 3.840691,0.89855 5.797579,1.09347 3.48635,0.34726 5.640396,-0.25827 9.059912,-0.6444 1.623525,-0.18333 3.255445,-0.4004 4.88704,-0.41858 -0.02118,-0.0833 0.101996,-0.40708 0.214457,-0.37724 0.05777,0.0153 0.109818,0.0443 0.164848,0.0662 0.284309,-0.34723 0.524805,-0.77226 0.935344,-0.77153 3.8627902,0.0101 -0.732426,2.64146 2.714563,0.21911 0.204748,1.80526 1.425339,0.97158 2.0370846,0.64853 -0.2659055,-0.35322 -0.4989195,-0.72352 -0.6252848,-1.14256 -0.1055944,-0.35016 0.7584511,0.0267 1.0779704,0.20464 0.7767392,0.4326 1.2762955,1.38868 2.1425048,1.58905 0.8977083,0.20766 1.8164895,-0.30876 2.7248983,-0.46302 0.8218236,0.21741 1.6190785,0.73125 2.46548253,0.65215 0.66889044,-0.0625 1.07091125,-0.88772 1.72444256,-1.04334 0.33995461,-0.081 0.62689731,0.47896 0.96789961,0.40256 0.3275228,-0.0734 0.317982,-0.78305 0.6531901,-0.76585 3.2848572,1.18407 1.6696366,0.92893 4.8167603,0.93793 1.7789065,1.53455 2.9564326,-2.43204 4.3780276,-1.75907 0.817927,0.38719 0.39789,1.7842 0.802535,2.59364 0.125353,0.25075 0.596964,0.69654 0.715201,0.44235 0.241306,-0.51873 -0.473699,-1.25883 -0.12454,-1.71204 0.319045,-0.41412 0.167001,1.03219 0.250631,1.54823 0.09141,-0.14719 0.121636,-0.52312 0.274402,-0.44132 0.174323,0.0933 0.318389,0.18136 0.448551,0.26614 0.02126,-0.42569 0.195796,-0.9995 0.683679,-1.76889 0.370446,-0.58418 -0.129888,1.58753 0.395842,2.03709 0.32913,0.28145 0.593598,-0.63983 0.948262,-0.88832 0.784365,-0.54956 1.63531,-0.99652 2.453081,-1.495 3.044303,-0.4662 2.624495,-0.66154 5.334041,-0.25683 0.427867,0.0639 0.84423,0.42226 1.260905,0.30592 0.876953,-0.24487 1.521505,-1.04685 2.388486,-1.32498 0.935786,-0.30017 1.949246,-0.25292 2.923852,-0.37931 1.168916,-0.38368 2.337845,-0.76766 3.506761,-1.15135 1.61797,0.34598 3.204824,1.17177 4.853967,1.03818 2.740485,-1.18732 4.414131,-2.28449 7.398517,-2.35179 1.227651,-0.0277 2.438744,0.289 3.658174,0.43356 1.303877,0.0848 2.60604,0.29967 3.911907,0.25477 1.14735,-0.0394 2.270927,-0.33734 3.406508,-0.50591 1.978864,-0.18555 3.297671,-0.45496 5.232757,-0.15245 0.781704,0.1222 1.534033,0.68298 2.303219,0.65836 1.185953,-4.31214 4.974873,-8.00282 12.209074,-9.91413 2.80126,-0.7401 3.31098,-0.14882 4.338235,-3.10627 0.351086,-1.01077 -0.144079,-2.31776 0.50178,-3.17086 0.638926,-0.84396 2.01454,-0.7192 2.891811,-1.31155 3.465401,-2.33991 0.198427,-2.56907 4.666898,-0.99787 0.493355,-1.0779 0.490088,-2.58125 1.480013,-3.2334 0.676815,-0.44587 1.550599,0.3798 2.372982,0.51573 -0.105712,0.53896 -0.168767,1.15281 -0.11162,0.82579 0.06894,-0.39449 0.09328,-0.56961 0.132292,-0.8232 -0.0069,-0.001 -0.01378,-0.001 -0.02066,-0.003 0.01929,-0.0981 0.04015,-0.1687 0.06201,-0.2558 0.190426,-1.24628 0.155019,-0.89677 1.550294,-2.86908 5.401714,0.22512 0.50804,0.66749 5.354194,-1.9575 0.68995,-0.37372 1.51957,-0.41278 2.29805,-0.51108 0.46772,-0.059 1.06952,0.36488 1.41335,0.0424 2.34698,-2.2018 -2.4189,-0.91647 1.14515,-1.58906 1.60429,-1.4609 3.45956,0.40623 5.0829,-0.0796 1.14166,-0.34165 1.79769,-1.6615 2.9192,-2.06447 0.66932,-0.2405 1.4121,0.16945 2.11821,0.25425 1.28926,-0.2054 2.6453,-0.15836 3.86799,-0.61599 1.87651,-0.70232 3.53949,-1.87891 5.30923,-2.81843 2.01685,0.59498 3.94816,1.73241 6.05028,1.78491 1.81459,0.0453 3.43816,-1.23775 5.23379,-1.50327 1.57201,-0.23251 3.17888,0.0561 4.76767,0.0243 1.24584,-0.0249 2.50789,-0.42165 3.7331,-0.19431 5.93224,1.10076 -1.14504,2.26598 5.15886,0.63924 0.62939,-0.17474 1.35807,-0.1739 1.99058,-0.34313 -0.0518,-0.1116 -0.0641,-0.22091 0.005,-0.29249 0.33397,-0.34414 0.79466,-0.5379 1.26297,-0.71985 0.45174,-0.93315 0.39262,-2.24805 1.21749,-2.86804 0.50158,-0.37696 0.92727,1.27762 0.57052,1.79368 -0.39822,0.57608 -1.10411,0.80864 -1.78801,1.07436 -0.0999,0.20626 -0.21599,0.40002 -0.38188,0.55655 -0.24867,0.23463 -0.55521,0.36721 -0.88626,0.45579 0.11149,0.24009 0.42409,0.49319 0.62529,0.41858 1.26309,-0.46845 2.26057,-1.46554 3.391,-2.19832 1.09801,-0.54571 2.12242,-1.27493 3.29386,-1.63711 1.27002,-0.39267 2.63377,-0.36962 3.94291,-0.60048 1.10232,-0.19438 2.21765,-0.35128 3.28921,-0.67489 1.47578,-0.4457 2.86336,-1.15124 4.32997,-1.62626 1.22728,-0.3975 2.49752,-0.64776 3.74188,-0.98805 1.19961,-0.32804 2.39289,-0.67759 3.58944,-1.01648 1.91107,-0.0619 3.22747,-0.0954 4.11139,-0.11213 -2.01335,-0.0573 -4.53129,-0.38547 2.66444,-1.8123 1.17766,-0.23351 2.38388,0.69832 3.56722,0.49558 1.13048,-0.19368 1.88558,-1.60756 3.03238,-1.62626 7.2988,-0.11915 0.69199,3.54465 5.76604,0.0599 0.3965,0.0293 0.88046,0.3378 1.18959,0.0879 0.38721,-0.31313 1.04954,-2.88604 1.83143,-3.0639 1.21916,-0.27732 2.50112,0.41795 3.74188,0.26355 1.14412,-0.14238 2.17793,-0.75681 3.26698,-1.13533 0.62124,-0.21591 1.24274,-0.43214 1.86398,-0.64802 1.5363,-0.48981 0.62644,2.18628 1.54409,2.30838 0.90757,0.12077 1.33649,-1.26221 2.08928,-1.78335 0.98223,-0.67997 1.9238,-1.57278 3.09542,-1.80609 0.24756,-0.0493 0.53014,-0.0739 0.8387,-0.0786 2.15985,-0.032 5.59689,0.92178 7.2745,1.31207 1.75049,-0.21373 3.50828,-0.9089 5.25136,-0.64131 6.18306,0.94917 10.74528,4.95915 14.07148,10.1198 1.3353,-0.0569 2.67059,-0.11367 4.00597,-0.17054 7.16816,3.82427 15.49065,4.79351 22.49731,8.96431 2.80217,1.66801 6.01199,3.03929 8.01036,5.6162 2.79887,3.60895 3.95063,8.23537 5.92574,12.35325 6.77363,14.12222 -10.09607,15.21848 -25.72554,14.20947 5.1808,20.35479 -14.22775,30.82347 -28.87989,21.77283 -2.78859,7.59355 -8.52015,15.13922 -17.25063,19.65772 -8.49271,4.39541 -0.19255,1.44025 -9.33741,0.63148 -1.54985,-0.13707 -3.04472,0.92326 -4.59662,0.81184 -1.60737,-0.1154 -3.03293,-1.11749 -4.60489,-1.47226 -6.30853,-1.42373 -1.41417,1.06759 -6.70399,-2.27532 -0.64803,0.45877 -1.11931,0.87215 -1.49086,1.19425 0.0389,0.16404 0.0175,0.29058 -0.10645,0.27285 -0.0596,-0.009 -0.11597,-0.026 -0.17313,-0.0413 -0.63735,0.52956 -0.9649,0.6499 -1.52032,-0.0693 -0.56538,-0.20633 -1.14033,-0.52649 -1.6712,-0.31678 -0.62202,0.24572 -0.48836,1.40364 -1.09762,1.67949 -0.58622,0.26543 -1.27341,-0.1908 -1.90375,-0.3204 -0.29644,-0.0609 -0.62125,-0.25821 -0.93328,-0.40721 l -0.32918,0.97152 c 0.0974,0.0238 0.11639,0.0332 0.26716,0.0667 -0.0933,0.1643 -0.16098,0.64011 -0.27956,0.493 -0.0372,-0.0461 -0.0819,-0.10486 -0.1235,-0.15762 l -10.51772,31.06685 c 0.32384,1.36737 0.57307,2.75741 0.8072,4.15219 h 1.03145 c -0.28353,-1.59346 -0.65615,-3.17551 -0.95446,-4.76613 -0.0132,-0.0706 -0.14566,-0.2467 -0.0997,-0.19119 0.96624,1.1737 1.79777,3.43295 2.23243,4.95732 H 290.12494 V 21.370272 Z M 184.23888,234.64563 c 0.0905,-0.0752 0.17432,-0.14027 0.27957,-0.23151 -0.0641,-0.2704 -0.29236,-0.64318 -0.49867,-0.64131 -0.25732,0.002 -0.42499,0.21832 -0.58343,0.45682 0.25231,0.18203 0.51359,0.33829 0.80253,0.416 z M 93.272343,171.30479 c -0.01048,0.0686 -0.02907,0.17865 -0.04134,0.25838 v 5.3e-4 c 0.07041,0.0106 0.14138,0.0254 0.210841,0.0243 0.196675,-0.003 -0.0077,-0.7647 -0.08527,-0.58395 -0.03004,0.07 -0.05672,0.19117 -0.08423,0.30076 z M -14.290084,196.9208 c -0.09886,0.12073 -0.204436,0.229 -0.322978,0.30954 0.303374,-0.002 0.606713,0.005 0.910022,0.0186 -0.186038,-0.13236 -0.379857,-0.24596 -0.587044,-0.32814 z m -0.322978,0.30954 c -0.01878,1.5e-4 -0.03755,10e-4 -0.05633,0.002 0.0049,0.0194 0.01549,0.0301 0.03824,0.0155 0.0067,-0.004 0.01147,-0.0126 0.01809,-0.017 z m 27.644825,44.034 c 0.231568,0.74528 0.488931,1.4721 0.854728,2.10582 0.35076,-0.63567 0.722413,-1.2524 1.105876,-1.85364 -0.26762,-0.12616 -0.552533,-0.14637 -0.881084,0.10904 -0.67141,-0.2107 -0.689737,-0.22948 -1.07952,-0.36122 z m 29.605944,8.11527 c -1.729547,0.40773 -3.427447,0.90185 -5.095811,1.60352 -0.85734,0.36057 -1.674617,0.81059 -2.510959,1.2175 -0.374008,0.18196 -0.713561,0.46272 -1.120344,0.54932 -0.152043,0.0324 0.188867,-0.24695 0.283186,-0.37052 -0.412226,-0.26507 -0.726734,0.68382 -0.955498,1.11724 -0.376047,0.71247 -0.70635,1.44858 -1.047998,2.17816 -0.108099,0.23085 -0.199745,0.46997 -0.29559,0.70694 0.02836,-0.007 0.05682,-0.0142 0.08527,-0.0212 0.621165,-0.6788 0.751975,-1.0695 0.726572,-0.42995 3.276524,-2.23599 6.565141,-4.4541 9.931175,-6.55102 z m -7.030061,5.95261 c -0.10137,0.0397 -0.203401,0.0779 -0.30489,0.1173 0.02199,-0.006 0.04415,-0.0121 0.06615,-0.0186 0.08255,-0.0243 0.159263,-0.0657 0.238744,-0.0987 z" />
    </clipPath>
    <clipPath
       clipPathUnits="userSpaceOnUse"
       id="clipPath14664">
      <path
         id="path14666"
         style="fill:#ff0000;fill-opacity:1;fill-rule:nonzero;stroke:none;stroke-width:0.264583"
         d="M -34.396349,32.076078 V 197.20502 c 1.926492,0.36434 3.829063,0.89553 5.780008,1.08985 3.48635,0.34726 5.640396,-0.25827 9.059912,-0.6444 1.623525,-0.18333 3.255445,-0.4004 4.88704,-0.41858 -0.02118,-0.0833 0.101996,-0.40708 0.214457,-0.37724 0.05777,0.0153 0.109818,0.0443 0.164848,0.0662 0.284309,-0.34723 0.524805,-0.77226 0.935344,-0.77153 3.8627902,0.0101 -0.732426,2.64146 2.714563,0.21911 0.204748,1.80526 1.425339,0.97158 2.0370846,0.64853 -0.2659055,-0.35322 -0.4989195,-0.72352 -0.6252848,-1.14256 -0.1055944,-0.35016 0.7584511,0.0267 1.0779704,0.20464 0.7767392,0.4326 1.2762955,1.38868 2.1425048,1.58905 0.8977083,0.20766 1.8164895,-0.30876 2.7248983,-0.46302 0.8218236,0.21741 1.6190785,0.73125 2.46548253,0.65215 0.66889044,-0.0625 1.07091125,-0.88772 1.72444256,-1.04334 0.33995461,-0.081 0.62689731,0.47896 0.96789961,0.40256 0.3275228,-0.0734 0.317982,-0.78305 0.6531901,-0.76585 3.2848572,1.18407 1.6696366,0.92893 4.8167603,0.93793 1.7789065,1.53455 2.9564326,-2.43204 4.3780276,-1.75907 0.817927,0.38719 0.39789,1.7842 0.802535,2.59364 0.125353,0.25075 0.596964,0.69654 0.715201,0.44235 0.241306,-0.51873 -0.473699,-1.25883 -0.12454,-1.71204 0.319045,-0.41412 0.167001,1.03219 0.250631,1.54823 0.09141,-0.14719 0.121636,-0.52312 0.274402,-0.44132 0.174323,0.0933 0.318389,0.18136 0.448551,0.26614 0.02126,-0.42569 0.195796,-0.9995 0.683679,-1.76889 0.370446,-0.58418 -0.129888,1.58753 0.395842,2.03709 0.32913,0.28145 0.593598,-0.63983 0.948262,-0.88832 0.784365,-0.54956 1.63531,-0.99652 2.453081,-1.495 3.044303,-0.4662 2.624495,-0.66154 5.334041,-0.25683 0.427867,0.0639 0.84423,0.42226 1.260905,0.30592 0.876953,-0.24487 1.521505,-1.04685 2.388486,-1.32498 0.935786,-0.30017 1.949246,-0.25292 2.923852,-0.37931 1.168916,-0.38368 2.337845,-0.76766 3.506761,-1.15135 1.61797,0.34598 3.204824,1.17177 4.853967,1.03818 2.740485,-1.18732 4.414131,-2.28449 7.398517,-2.35179 1.227651,-0.0277 2.438744,0.289 3.658174,0.43356 1.303877,0.0848 2.60604,0.29967 3.911907,0.25477 1.14735,-0.0394 2.270927,-0.33734 3.406508,-0.50591 1.978864,-0.18555 3.297671,-0.45496 5.232757,-0.15245 0.781704,0.1222 1.534033,0.68298 2.303219,0.65836 1.185953,-4.31214 4.974873,-8.00282 12.209074,-9.91413 2.80126,-0.7401 3.31098,-0.14882 4.338235,-3.10627 0.351086,-1.01077 -0.144079,-2.31776 0.50178,-3.17086 0.638926,-0.84396 2.01454,-0.7192 2.891811,-1.31155 3.465401,-2.33991 0.198427,-2.56907 4.666898,-0.99787 0.493355,-1.0779 0.490088,-2.58125 1.480013,-3.2334 0.676815,-0.44587 1.550599,0.3798 2.372982,0.51573 -0.105712,0.53896 -0.168767,1.15281 -0.11162,0.82579 0.06894,-0.39449 0.09328,-0.56961 0.132292,-0.8232 -0.0069,-0.001 -0.01378,-0.001 -0.02066,-0.003 0.01929,-0.0981 0.04015,-0.1687 0.06201,-0.2558 0.190426,-1.24628 0.155019,-0.89677 1.550294,-2.86908 5.401714,0.22512 0.50804,0.66749 5.354194,-1.9575 0.68995,-0.37372 1.51957,-0.41278 2.29805,-0.51108 0.46772,-0.059 1.06952,0.36488 1.41335,0.0424 2.34698,-2.2018 -2.4189,-0.91647 1.14515,-1.58906 1.60429,-1.4609 3.45956,0.40623 5.0829,-0.0796 1.14166,-0.34165 1.79769,-1.6615 2.9192,-2.06447 0.66932,-0.2405 1.4121,0.16945 2.11821,0.25425 1.28926,-0.2054 2.6453,-0.15836 3.86799,-0.61599 1.87651,-0.70232 3.53949,-1.87891 5.30923,-2.81843 2.01685,0.59498 3.94816,1.73241 6.05028,1.78491 1.81459,0.0453 3.43816,-1.23775 5.23379,-1.50327 1.57201,-0.23251 3.17888,0.0561 4.76767,0.0243 1.24584,-0.0249 2.50789,-0.42165 3.7331,-0.19431 5.93224,1.10076 -1.14504,2.26598 5.15886,0.63924 0.62939,-0.17474 1.35807,-0.1739 1.99058,-0.34313 -0.0518,-0.1116 -0.0641,-0.22091 0.005,-0.29249 0.33397,-0.34414 0.79466,-0.5379 1.26297,-0.71985 0.45174,-0.93315 0.39262,-2.24805 1.21749,-2.86804 0.50158,-0.37696 0.92727,1.27762 0.57052,1.79368 -0.39822,0.57608 -1.10411,0.80864 -1.78801,1.07436 -0.0999,0.20626 -0.21599,0.40002 -0.38188,0.55655 -0.24867,0.23463 -0.55521,0.36721 -0.88626,0.45579 0.11149,0.24009 0.42409,0.49319 0.62529,0.41858 1.26309,-0.46845 2.26057,-1.46554 3.391,-2.19832 1.09801,-0.54571 2.12242,-1.27493 3.29386,-1.63711 1.27002,-0.39267 2.63377,-0.36962 3.94291,-0.60048 1.10232,-0.19438 2.21765,-0.35128 3.28921,-0.67489 1.47578,-0.4457 2.86336,-1.15124 4.32997,-1.62626 1.22728,-0.3975 2.49752,-0.64776 3.74188,-0.98805 1.19961,-0.32804 2.39289,-0.67759 3.58944,-1.01648 1.91107,-0.0619 3.22747,-0.0954 4.11139,-0.11213 -2.01335,-0.0573 -4.53129,-0.38547 2.66444,-1.8123 1.17766,-0.23351 2.38388,0.69832 3.56722,0.49558 1.13048,-0.19368 1.88558,-1.60756 3.03238,-1.62626 7.2988,-0.11915 0.69199,3.54465 5.76604,0.0599 0.3965,0.0293 0.88046,0.3378 1.18959,0.0879 0.38721,-0.31313 1.04954,-2.88604 1.83143,-3.0639 1.21916,-0.27732 2.50112,0.41795 3.74188,0.26355 1.14412,-0.14238 2.17793,-0.75681 3.26698,-1.13533 0.62124,-0.21591 1.24274,-0.43214 1.86398,-0.64802 1.5363,-0.48981 0.62644,2.18628 1.54409,2.30838 0.90757,0.12077 1.33649,-1.26221 2.08928,-1.78335 0.98223,-0.67997 1.9238,-1.57278 3.09542,-1.80609 0.24756,-0.0493 0.53014,-0.0739 0.8387,-0.0786 2.15985,-0.032 5.59689,0.92178 7.2745,1.31207 1.75049,-0.21373 3.50828,-0.9089 5.25136,-0.64131 6.18306,0.94917 10.74528,4.95915 14.07148,10.1198 1.3353,-0.0569 2.67059,-0.11367 4.00597,-0.17054 7.16816,3.82427 15.49065,4.79351 22.49731,8.96431 2.80217,1.66801 6.01199,3.03929 8.01036,5.6162 2.79887,3.60895 3.95063,8.23537 5.92574,12.35325 6.77363,14.12222 -10.09607,15.21848 -25.72554,14.20947 5.1808,20.35479 -14.22775,30.82347 -28.87989,21.77283 -2.78859,7.59355 -8.52015,15.13922 -17.25063,19.65772 -8.49271,4.39541 -0.19255,1.44025 -9.33741,0.63148 -1.54985,-0.13707 -3.04472,0.92326 -4.59662,0.81184 -1.60737,-0.1154 -3.03293,-1.11749 -4.60489,-1.47226 -6.30853,-1.42373 -1.41417,1.06759 -6.70399,-2.27532 -0.64803,0.45877 -1.11931,0.87215 -1.49086,1.19425 0.0389,0.16404 0.0175,0.29058 -0.10645,0.27285 -0.0596,-0.009 -0.11597,-0.026 -0.17313,-0.0413 -0.63735,0.52956 -0.9649,0.6499 -1.52032,-0.0693 -0.56538,-0.20633 -1.14033,-0.52649 -1.6712,-0.31678 -0.62202,0.24572 -0.48836,1.40364 -1.09762,1.67949 -0.58622,0.26543 -1.27341,-0.1908 -1.90375,-0.3204 -0.29644,-0.0609 -0.62125,-0.25821 -0.93328,-0.40721 l -0.32918,0.97152 c 0.0974,0.0238 0.11639,0.0332 0.26716,0.0667 -0.0933,0.1643 -0.16098,0.64011 -0.27956,0.493 -0.0372,-0.0461 -0.0819,-0.10486 -0.1235,-0.15762 l -10.52081,31.07458 c 0.673,2.83548 1.00497,5.77519 1.63504,8.62377 0.18478,-0.65413 0.60928,-1.28516 0.55449,-1.96268 -0.19887,-2.458 -0.84765,-4.85886 -1.30225,-7.28276 -0.0132,-0.0706 -0.14566,-0.2467 -0.0997,-0.19119 1.36226,1.65473 2.47338,5.49646 2.55179,6.34122 0.26117,2.81583 -0.55507,5.62859 -0.83252,8.44288 -0.89899,2.44004 -1.52598,4.99843 -2.6975,7.31999 -0.8033,1.59197 -1.687,3.15299 -2.61172,4.69376 12.6194,1.11308 5.08132,1.66796 15.07039,-0.89194 1.91824,-0.49159 -5.42672,1.8301 -3.45612,1.22577 -3.17605,1.08312 -6.35368,2.18061 -9.40355,3.58944 -1.35804,0.4958 -2.69058,1.06876 -4.07417,1.48778 -0.69889,0.21164 -1.40179,0.40457 -2.10686,0.58703 -2.77927,3.82114 -5.86647,7.4228 -9.14001,10.72028 -2.54306,2.56159 -5.69668,5.40705 -9.07127,8.14628 l 0.4134,7.93851 c 0.92714,1.91701 1.88459,3.80611 2.87683,5.66065 H 310.05912 V 32.076078 Z M 184.23888,234.64563 c 0.0905,-0.0752 0.17432,-0.14027 0.27957,-0.23151 -0.0641,-0.2704 -0.29236,-0.64318 -0.49867,-0.64131 -0.25732,0.002 -0.42499,0.21832 -0.58343,0.45682 0.25231,0.18203 0.51359,0.33829 0.80253,0.416 z M 93.272343,171.30479 c -0.01048,0.0686 -0.02907,0.17865 -0.04134,0.25838 v 5.3e-4 c 0.07041,0.0106 0.14138,0.0254 0.210841,0.0243 0.196675,-0.003 -0.0077,-0.7647 -0.08527,-0.58395 -0.03004,0.07 -0.05672,0.19117 -0.08423,0.30076 z M -14.290084,196.9208 c -0.09886,0.12073 -0.204436,0.229 -0.322978,0.30954 0.303374,-0.002 0.606713,0.005 0.910022,0.0186 -0.186038,-0.13236 -0.379857,-0.24596 -0.587044,-0.32814 z m -0.322978,0.30954 c -0.01878,1.5e-4 -0.03755,10e-4 -0.05633,0.002 0.0049,0.0194 0.01549,0.0301 0.03824,0.0155 0.0067,-0.004 0.01147,-0.0126 0.01809,-0.017 z m 27.644308,44.034 c 0.231786,0.74606 0.489903,1.47373 0.856278,2.10788 0.351616,-0.63721 0.731471,-1.24761 1.115695,-1.85053 -0.270711,-0.13116 -0.55893,-0.15501 -0.891936,0.10387 -0.6717,-0.21079 -0.690191,-0.22945 -1.080037,-0.36122 z m 29.606461,8.11527 c -1.729547,0.40773 -3.427447,0.90185 -5.095811,1.60352 -0.85734,0.36057 -1.674617,0.81059 -2.510959,1.2175 -0.374008,0.18196 -0.713561,0.46272 -1.120344,0.54932 -0.152043,0.0324 0.188867,-0.24695 0.283186,-0.37052 -0.412226,-0.26507 -0.726734,0.68382 -0.955498,1.11724 -0.376047,0.71247 -0.70635,1.44858 -1.047998,2.17816 -0.108099,0.23085 -0.199745,0.46997 -0.29559,0.70694 0.02836,-0.007 0.05682,-0.0142 0.08527,-0.0212 0.621165,-0.6788 0.751975,-1.0695 0.726572,-0.42995 3.276524,-2.23599 6.565141,-4.4541 9.931175,-6.55102 z m -7.030061,5.95261 c -0.10137,0.0397 -0.203401,0.0779 -0.30489,0.1173 0.02199,-0.006 0.04415,-0.0121 0.06615,-0.0186 0.08255,-0.0243 0.159263,-0.0657 0.238744,-0.0987 z" />
    </clipPath>
    <clipPath
       clipPathUnits="userSpaceOnUse"
       id="clipPath14674">
      <path
         id="path14676"
         style="fill:#ff0000;fill-opacity:1;fill-rule:nonzero;stroke:none;stroke-width:0.264583"
         d="M -19.655131,68.548787 V 197.66339 c 0.03536,-0.004 0.06307,-0.009 0.0987,-0.0129 1.623525,-0.18333 3.255445,-0.4004 4.88704,-0.41858 -0.02118,-0.0833 0.101996,-0.40708 0.214457,-0.37724 0.05777,0.0153 0.109818,0.0445 0.164848,0.0661 0.284309,-0.34723 0.524805,-0.77226 0.935344,-0.77153 3.8627902,0.0101 -0.732426,2.64146 2.714563,0.21911 0.204748,1.80526 1.425339,0.97158 2.0370846,0.64853 -0.2659055,-0.35322 -0.4989195,-0.72352 -0.6252848,-1.14256 -0.1055944,-0.35016 0.7584511,0.0267 1.0779704,0.20464 0.7767392,0.4326 1.2762955,1.38868 2.1425048,1.58905 0.8977083,0.20766 1.8164895,-0.30876 2.7248983,-0.46302 0.8218236,0.21741 1.6190785,0.73125 2.46548253,0.65215 0.66889044,-0.0625 1.07091125,-0.88772 1.72444256,-1.04334 0.33995461,-0.081 0.62689731,0.47896 0.96789961,0.40256 0.3275228,-0.0734 0.317982,-0.78305 0.6531901,-0.76585 3.2848572,1.18407 1.6696366,0.92893 4.8167603,0.93793 1.7789065,1.53455 2.9564326,-2.43204 4.3780276,-1.75907 0.817927,0.38719 0.39789,1.7842 0.802535,2.59364 0.125353,0.25075 0.596964,0.69654 0.715201,0.44235 0.241306,-0.51873 -0.473699,-1.25883 -0.12454,-1.71204 0.319045,-0.41412 0.167001,1.03219 0.250631,1.54823 0.09141,-0.14719 0.121636,-0.52312 0.274402,-0.44132 0.174323,0.0933 0.318389,0.18136 0.448551,0.26614 0.02126,-0.42569 0.195796,-0.9995 0.683679,-1.76889 0.370446,-0.58418 -0.129888,1.58753 0.395842,2.03709 0.32913,0.28145 0.593598,-0.63983 0.948262,-0.88832 0.784365,-0.54956 1.63531,-0.99652 2.453081,-1.495 3.044303,-0.4662 2.624495,-0.66154 5.334041,-0.25683 0.427867,0.0639 0.84423,0.42226 1.260905,0.30592 0.876953,-0.24487 1.521505,-1.04685 2.388486,-1.32498 0.935786,-0.30017 1.949246,-0.25292 2.923852,-0.37931 1.168916,-0.38368 2.337845,-0.76766 3.506761,-1.15135 1.61797,0.34598 3.204824,1.17177 4.853967,1.03818 2.740485,-1.18732 4.414131,-2.28449 7.398517,-2.35179 1.227651,-0.0277 2.438744,0.289 3.658174,0.43356 1.303877,0.0848 2.60604,0.29967 3.911907,0.25477 1.14735,-0.0394 2.270927,-0.33734 3.406508,-0.50591 1.978864,-0.18555 3.297671,-0.45496 5.232757,-0.15245 0.781704,0.1222 1.534033,0.68298 2.303219,0.65836 1.185953,-4.31214 4.974873,-8.00282 12.209074,-9.91413 2.80126,-0.7401 3.31098,-0.14882 4.338235,-3.10627 0.351086,-1.01077 -0.144079,-2.31776 0.50178,-3.17086 0.638926,-0.84396 2.01454,-0.7192 2.891811,-1.31155 3.465401,-2.33991 0.198427,-2.56907 4.666898,-0.99787 0.493355,-1.0779 0.490088,-2.58125 1.480013,-3.2334 0.676815,-0.44587 1.550599,0.3798 2.372982,0.51573 -0.105712,0.53896 -0.168767,1.15281 -0.11162,0.82579 0.06894,-0.39449 0.09328,-0.56961 0.132292,-0.8232 -0.0069,-0.001 -0.01378,-0.001 -0.02066,-0.003 0.01929,-0.0981 0.04015,-0.1687 0.06201,-0.2558 0.190426,-1.24628 0.155019,-0.89677 1.550294,-2.86908 5.401716,0.22512 0.508048,0.66749 5.354196,-1.9575 0.68995,-0.37372 1.51957,-0.41278 2.29805,-0.51108 0.46772,-0.059 1.06952,0.36488 1.41335,0.0424 2.34698,-2.2018 -2.4189,-0.91647 1.14515,-1.58906 1.60429,-1.4609 3.45956,0.40623 5.0829,-0.0796 1.14166,-0.34165 1.79769,-1.6615 2.9192,-2.06447 0.66932,-0.2405 1.4121,0.16945 2.11821,0.25425 1.28926,-0.2054 2.6453,-0.15836 3.86799,-0.61599 1.87651,-0.70232 3.53949,-1.87891 5.30923,-2.81843 2.01685,0.59498 3.94816,1.73241 6.05028,1.78491 1.81459,0.0453 3.43816,-1.23775 5.23379,-1.50327 1.57201,-0.23251 3.17888,0.0561 4.76767,0.0243 1.24584,-0.0249 2.50789,-0.42165 3.7331,-0.19431 5.93224,1.10076 -1.14504,2.26599 5.15886,0.63924 0.62939,-0.17473 1.35807,-0.1739 1.99058,-0.34313 -0.0518,-0.11159 -0.0641,-0.22091 0.005,-0.29249 0.33397,-0.34415 0.79466,-0.5379 1.26297,-0.71985 0.45174,-0.93315 0.39262,-2.24805 1.21749,-2.86804 0.50158,-0.37696 0.92727,1.27762 0.57052,1.79368 -0.39822,0.57608 -1.10411,0.80864 -1.78801,1.07436 -0.0999,0.20626 -0.21599,0.40002 -0.38188,0.55655 -0.24867,0.23463 -0.55521,0.36721 -0.88626,0.45579 0.11149,0.2401 0.4241,0.49319 0.62529,0.41858 1.2631,-0.46845 2.26059,-1.46554 3.391,-2.19832 1.09801,-0.54571 2.12242,-1.27493 3.29386,-1.63711 1.27002,-0.39266 2.63377,-0.36962 3.94291,-0.60048 1.10232,-0.19437 2.21765,-0.35128 3.28921,-0.67489 1.47578,-0.44571 2.86336,-1.15124 4.32997,-1.62626 1.22728,-0.3975 2.49752,-0.64775 3.74188,-0.98805 1.19961,-0.32804 2.39289,-0.67759 3.58944,-1.01648 1.91107,-0.0619 3.22747,-0.0954 4.11139,-0.11213 -2.01335,-0.0573 -4.53129,-0.38548 2.66444,-1.8123 1.17766,-0.23352 2.38388,0.69832 3.56722,0.49558 1.13048,-0.19368 1.88558,-1.60756 3.03238,-1.62626 7.2988,-0.11915 0.69199,3.54456 5.76604,0.0599 0.3965,0.0293 0.88046,0.3378 1.18959,0.0879 0.38721,-0.31313 1.04954,-2.88603 1.83143,-3.0639 1.21916,-0.27731 2.50111,0.41795 3.74188,0.26355 1.14411,-0.14238 2.17794,-0.75682 3.26698,-1.13533 0.62124,-0.21591 1.24274,-0.43215 1.86398,-0.64802 1.5363,-0.48981 0.62644,2.18628 1.54409,2.30838 0.90756,0.12078 1.33647,-1.2622 2.08928,-1.78335 0.98222,-0.67996 1.9238,-1.57278 3.09542,-1.80609 0.24756,-0.0493 0.53014,-0.074 0.8387,-0.0786 2.15985,-0.032 5.59689,0.92178 7.2745,1.31207 1.75049,-0.21373 3.50828,-0.9089 5.25136,-0.64131 6.18306,0.94916 10.74528,4.95915 14.07148,10.1198 1.3353,-0.0568 2.67059,-0.11367 4.00597,-0.17054 7.16816,3.82428 15.49065,4.79351 22.49731,8.96431 2.80217,1.66801 6.01199,3.0393 8.01036,5.6162 2.79887,3.60896 3.95063,8.23538 5.92574,12.35325 6.77363,14.12224 -10.09607,15.21849 -25.72554,14.20947 5.1808,20.35479 -14.22775,30.82347 -28.87989,21.77283 -2.78859,7.59355 -8.52015,15.13922 -17.25063,19.65772 -8.49271,4.39541 -0.19255,1.44025 -9.33741,0.63148 -1.54985,-0.13707 -3.04472,0.92326 -4.59662,0.81184 -1.60737,-0.1154 -3.03293,-1.11749 -4.60489,-1.47226 -6.30853,-1.42373 -1.41417,1.06759 -6.70399,-2.27532 -0.64803,0.45877 -1.11931,0.87215 -1.49086,1.19425 0.0389,0.16404 0.0175,0.29058 -0.10645,0.27285 -0.0596,-0.009 -0.11597,-0.026 -0.17313,-0.0413 -0.63735,0.52956 -0.9649,0.6499 -1.52032,-0.0692 -0.56538,-0.20633 -1.14033,-0.52649 -1.6712,-0.31678 -0.62202,0.24572 -0.48836,1.40364 -1.09762,1.67949 -0.58622,0.26543 -1.27341,-0.1908 -1.90375,-0.3204 -0.29644,-0.0609 -0.62125,-0.25821 -0.93328,-0.40721 l -0.32918,0.97152 c 0.0974,0.0238 0.11639,0.0332 0.26716,0.0667 -0.0933,0.1643 -0.16098,0.64011 -0.27956,0.493 -0.0372,-0.0461 -0.0819,-0.10486 -0.1235,-0.15762 l -10.52081,31.07457 c 0.673,2.83551 1.00497,5.77519 1.63504,8.62377 0.18478,-0.65413 0.60928,-1.28516 0.55449,-1.96268 -0.19887,-2.458 -0.84765,-4.85886 -1.30225,-7.28276 -0.0132,-0.0706 -0.14566,-0.2467 -0.0997,-0.19119 1.36226,1.65473 2.47338,5.49646 2.55179,6.34122 0.26117,2.8158 -0.55507,5.62859 -0.83252,8.44288 -0.89899,2.44004 -1.52598,4.99843 -2.6975,7.31999 -0.8033,1.59197 -1.687,3.15299 -2.61172,4.69376 12.6194,1.11308 5.08132,1.66796 15.07039,-0.89194 1.91824,-0.49159 -5.42671,1.8301 -3.45612,1.22577 -3.17605,1.08312 -6.35367,2.18061 -9.40355,3.58944 -1.35803,0.4958 -2.69058,1.06876 -4.07417,1.48778 -0.69889,0.21164 -1.40179,0.40457 -2.10686,0.58703 -2.77927,3.82114 -5.86647,7.4228 -9.14001,10.72028 -2.54306,2.56159 -5.69668,5.40705 -9.07127,8.14628 l 0.41289,7.93801 c 14.61536,30.21975 37.66576,52.52561 55.17131,69.10586 h 99.33244 V 68.548787 Z M 184.23888,234.64563 c 0.0905,-0.0752 0.17432,-0.14027 0.27957,-0.23151 -0.0641,-0.2704 -0.29236,-0.64318 -0.49867,-0.64131 -0.25732,0.002 -0.42499,0.21832 -0.58343,0.45682 0.25231,0.18203 0.51359,0.33829 0.80253,0.416 z M 93.272343,171.30479 c -0.01048,0.0686 -0.02907,0.17865 -0.04134,0.25838 v 5.3e-4 c 0.07041,0.0106 0.14138,0.0254 0.210841,0.0243 0.196675,-0.003 -0.0077,-0.7647 -0.08527,-0.58395 -0.03004,0.07 -0.05672,0.19117 -0.08423,0.30076 z M -14.290084,196.9208 c -0.09886,0.12073 -0.204436,0.229 -0.322978,0.30954 0.303374,-0.002 0.606713,0.005 0.910022,0.0186 -0.186038,-0.13236 -0.379857,-0.24596 -0.587044,-0.32814 z m -0.322978,0.30954 c -0.01878,1.5e-4 -0.03755,10e-4 -0.05633,0.002 0.0049,0.0194 0.01549,0.0301 0.03824,0.0155 0.0067,-0.004 0.01147,-0.0126 0.01809,-0.017 z m 27.644308,44.034 c 0.231786,0.74606 0.489903,1.47373 0.856278,2.10788 0.351616,-0.63721 0.731471,-1.24761 1.115695,-1.85053 -0.270711,-0.13116 -0.55893,-0.15501 -0.891936,0.10387 -0.6717,-0.21079 -0.690191,-0.22945 -1.080037,-0.36122 z m 29.608012,8.11424 c -1.730097,0.40779 -3.42849,0.90215 -5.097362,1.60403 -0.85734,0.36057 -1.674617,0.81059 -2.510959,1.2175 -0.374008,0.18196 -0.713558,0.46272 -1.120344,0.54932 -0.152043,0.0324 0.188867,-0.24695 0.283186,-0.37052 -0.412226,-0.26507 -0.726734,0.68388 -0.955498,1.11724 -0.376047,0.71247 -0.70635,1.44859 -1.047998,2.17817 -0.108194,0.23105 -0.200171,0.47028 -0.296106,0.70745 0.02852,-0.007 0.05717,-0.0142 0.08578,-0.0212 0.621165,-0.6788 0.751975,-1.0695 0.726572,-0.42995 3.277029,-2.23634 6.566144,-4.45489 9.932726,-6.55205 z m -7.031612,5.95364 c -0.10137,0.0397 -0.203401,0.0779 -0.30489,0.1173 0.02199,-0.006 0.04415,-0.0121 0.06615,-0.0186 0.08255,-0.0243 0.159263,-0.0657 0.238744,-0.0987 z M -19.655131,391.6376 v 3.91552 h 1.278475 c -0.422218,-1.29374 -0.581929,-2.81319 -1.278475,-3.91552 z" />
    </clipPath>
    <clipPath
       clipPathUnits="userSpaceOnUse"
       id="clipPath14684">
      <path
         id="path14686"
         style="fill:#ff0000;fill-opacity:1;fill-rule:nonzero;stroke:none;stroke-width:0.264583"
         d="m -78.84015,149.39088 v 75.02126 c 7.824888,-4.12209 16.53272,-7.20099 25.935368,-8.8346 -2.316207,-11.21449 3.062328,-21.28565 18.490862,-18.37614 1.932508,0.36443 3.840691,0.89855 5.797579,1.09347 2.752492,0.27417 4.696253,-0.0446 7.066235,-0.38137 -5.988455,-10.30462 -5.204,-23.95303 6.515882,-29.50828 1.705895,-3.70909 4.427153,-7.51214 8.30957,-11.20086 8.074564,-7.67177 5.0776879,-5.60362 10.2887775,-7.81348 z m 88.5119112,9.10797 c -1.0650789,1.93188 -2.0002357,3.85539 -2.5342125,5.75314 1.8693217,-0.30224 3.7257943,-0.66121 5.5624513,-1.10794 -1.156684,-1.77298 -2.200697,-3.35895 -3.0282388,-4.6452 z M 186.00932,233.21987 c -0.64803,0.45877 -1.11932,0.87215 -1.49087,1.19425 0.0389,0.16404 0.0175,0.29058 -0.10645,0.27285 -0.0596,-0.009 -0.11596,-0.026 -0.17312,-0.0413 -0.63735,0.52956 -0.96491,0.6499 -1.52032,-0.0693 -0.56539,-0.20633 -1.14034,-0.52649 -1.67121,-0.31678 -0.62201,0.24572 -0.48836,1.40364 -1.09761,1.67949 -0.58623,0.26543 -1.27342,-0.1908 -1.90376,-0.3204 -0.62881,-0.12928 -1.3897,-0.88035 -1.8712,-0.45578 -0.24167,0.21308 -0.11803,0.55469 0.0904,0.89142 0.18069,0.0497 0.34229,0.097 0.78548,0.19533 -0.0933,0.1643 -0.16099,0.64011 -0.27957,0.493 -0.15103,-0.18737 -0.3502,-0.43682 -0.50591,-0.68833 -0.79835,-0.21941 0.31912,-0.0276 -1.02474,0.2775 -0.59599,0.13532 -1.26871,-0.039 -1.81953,0.22582 -0.84611,0.40674 -1.49634,1.13491 -2.22984,1.72083 -0.71776,0.57334 -1.24235,1.49629 -2.12338,1.75648 -1.17414,0.34675 -2.44847,-0.03 -3.67265,-0.045 -1.12875,0.0454 -2.25763,0.091 -3.38635,0.13643 -0.91607,0.54176 -1.70164,1.43165 -2.74816,1.62522 -0.77859,0.14401 -1.48117,-0.7569 -2.27066,-0.6966 -0.71857,0.0549 -1.2406,0.74506 -1.90841,1.01596 -6.79421,2.75613 0.99935,-0.86874 -3.40961,1.22628 -0.49899,0.48308 -0.80345,1.41423 -1.49707,1.44953 -0.85626,0.0436 -1.38546,-1.24984 -2.24275,-1.25884 -0.65301,-0.007 -0.96121,0.90411 -1.53273,1.22008 -0.36368,0.20107 -3.5425,0.91946 -3.5574,0.92346 -1.016,0.28638 -2.01509,0.63007 -3.02256,0.94516 -0.72163,0.20014 -1.419,0.53188 -2.16472,0.60048 -0.61953,0.057 -1.32025,-0.55381 -1.85209,-0.23099 -1.28419,0.77947 0.5314,2.41071 -1.19682,3.0055 -0.81706,0.2812 -1.72079,-0.15841 -2.58124,-0.23771 l -2.82153,1.74356 c -3.26227,0.005 -6.55444,0.49036 -9.5281,1.91668 -1.11643,0.53549 -1.97252,1.79114 -3.20808,1.87224 -1.24026,0.0814 -2.29411,-0.95734 -3.44113,-1.43609 -1.23223,0.10637 -2.46418,0.21247 -3.69642,0.31884 -3.33705,0.11826 -3.42846,0.27568 -6.71121,-0.20877 -1.05347,-0.15546 -2.18812,-0.12975 -3.134181,-0.61857 -0.947229,-0.48942 -1.255109,-2.19738 -2.321303,-2.20038 -4.606033,-0.0119 0.35573,4.89758 -3.220993,0.58498 -0.409622,0.84153 -0.398719,2.09218 -1.228865,2.52439 -0.498446,0.25952 -0.441989,-1.17759 -0.965316,-1.38234 -0.340998,-0.13342 -0.515808,0.72195 -0.876951,0.66145 -0.580954,-0.0973 -0.86655,-0.85519 -1.423683,-1.04644 -2.418504,-0.83021 -3.098747,-0.17732 -5.448763,0.56379 -0.825381,0.26151 -1.256927,0.41321 -1.557528,0.52348 0.204131,-0.10408 0.402111,-0.23819 0.41031,-0.37207 0.01249,-0.20389 -0.01458,-0.58226 -0.218591,-0.57206 -0.221665,0.0111 -0.07847,0.541 -0.293007,0.5979 -1.001898,0.26556 -1.128051,-0.1002 -1.0697,-0.4098 -0.198022,0.36251 -0.618403,1.04849 -1.476396,2.27945 l -2.644283,-0.46612 c -0.532654,0.57058 -0.817523,1.69162 -1.597837,1.71152 -0.406636,0.0104 -0.716786,-0.27987 -1.014923,-0.61495 -0.278038,0.14889 -0.461844,0.11225 -1.422136,0.11472 0.0091,0.0294 0.01722,0.0577 0.02687,0.0873 0.20093,0.46594 0.421698,0.92417 0.592212,1.40198 0.03769,0.10563 -0.353354,-0.66957 -0.592212,-1.40198 -0.01259,-0.0292 -0.02633,-0.058 -0.03876,-0.0873 0.0059,-1e-5 0.006,2e-5 0.01188,0 -0.186354,-0.60203 -0.254947,-1.1509 0.144693,-1.11207 0.524949,0.051 0.890875,0.56289 1.277442,0.99735 0.273878,-0.14666 0.644298,-0.47286 1.968871,-1.20768 11.215616,-6.22196 4.803841,-12.13478 -4.556311,-17.69194 -0.143189,0.12394 -0.140366,0.0733 -0.121438,-0.0713 -0.932138,-0.55164 -1.890612,-1.09929 -2.865459,-1.64383 -0.647054,0.19558 -1.218073,0.91925 -1.917197,0.99115 -1.214697,0.12495 -2.42511,-0.28971 -3.639571,-0.41703 -4.5519,-0.47721 -2.585027,-0.50635 -6.933944,0.18036 -1.128728,0.19744 -5.518745,1.10406 -6.751007,0.78134 -0.580012,-0.1519 -0.574818,-1.3817 -1.174089,-1.3627 -0.499467,0.0158 -0.152114,1.05001 -0.492993,1.41541 -1.13648,1.21822 -2.946379,1.09802 -4.39353,1.27383 -10.094508,0.23342 2.244815,-0.28162 -6.291088,0.70693 -0.967335,0.112 -1.952728,-0.0659 -2.92127,0.0351 -0.756187,0.0789 -1.469493,0.41828 -2.225188,0.50178 -0.645375,0.0713 -1.347978,-0.29101 -1.947167,-0.0408 -0.929886,0.38817 -1.593474,1.23444 -2.390034,1.85157 -1.071108,-0.42141 -2.062372,-1.28302 -3.213242,-1.26452 -1.173881,0.0189 -2.150095,0.9454 -3.24528,1.36839 -0.381596,0.14738 -4.126058,1.43165 -4.708239,1.49345 -0.920618,0.0978 -1.550404,-1.77966 -2.60656,-0.9586 -0.681627,-0.2139 -0.704151,-0.23378 -1.096057,-0.36638 0.452712,1.47628 1.042526,2.85468 2.261361,3.6623 1.529238,1.01334 3.577983,-0.81147 5.367114,-1.21698 -0.314368,1.73011 -1.959275,3.75531 -0.943095,5.19039 0.878437,1.24047 3.270913,-0.88968 4.559412,-0.0832 1.723361,1.07866 0.353197,7.62958 1.546676,8.13387 7.960809,3.36372 7.007854,-6.62251 6.726202,2.44222 5.998962,6.53932 5.184252,4.29943 5.453933,8.77828 H 214.51662 v -34.56378 c -1.03822,0.68681 -2.12409,1.33168 -3.2644,1.92185 -8.4927,4.39541 -0.19255,1.44025 -9.33741,0.63148 -1.54985,-0.13707 -3.04471,0.92326 -4.59662,0.81184 -1.60737,-0.1154 -3.03292,-1.11749 -4.60489,-1.47226 -6.30853,-1.42373 -1.41416,1.06759 -6.70398,-2.27532 z m -1.77044,1.42576 c 0.0905,-0.0752 0.17432,-0.14027 0.27957,-0.23151 -0.0641,-0.2704 -0.29236,-0.64318 -0.49867,-0.64131 -0.25732,0.002 -0.42499,0.21832 -0.58343,0.45682 0.25231,0.18203 0.51359,0.33829 0.80253,0.416 z" />
    </clipPath>
  </defs>
  <g
     inkscape:label="Layer 1"
     inkscape:groupmode="layer"
     id="layer1">
    <path
       style="fill:#00b2e7;stroke-width:0.264583;fill-opacity:0.25"
       id="path6997"
       d="m 34.533599,147.23455 c 0.0063,-0.005 -0.12346,0.23742 -0.08965,0.17966 0.668858,-1.1428 1.304218,-2.30597 1.951617,-3.46098 0.457493,-0.81026 0.954503,-1.59719 1.451848,-2.38333 0.68485,-1.07546 1.377608,-2.1457 2.053897,-3.22661 -0.638122,0.91715 -0.789279,1.28838 -1.046176,1.62438 -1.5812,1.85299 -3.375118,3.55568 -5.357992,4.97659 -0.566108,0.40566 -1.149533,0.78661 -1.724298,1.17991 -1.187394,0.7752 -2.435759,1.44438 -3.714432,2.05395 -0.237514,0.11323 -0.479896,0.21596 -0.719458,0.32479 -0.03409,0.0155 -0.137395,0.0587 -0.101473,0.0481 0.07752,-0.0228 0.151326,-0.0567 0.226986,-0.085 1.512382,-0.55933 3.01348,-1.14738 4.50937,-1.74927 2.542977,-1.03974 5.037172,-2.19237 7.510135,-3.38754 3.074336,-1.45809 6.089158,-3.03074 9.063598,-4.68206 2.43251,-1.38872 4.824579,-2.84713 7.198582,-4.33324 -0.650922,0.39385 0.689729,-0.42634 0.517359,-0.31965 -0.117684,0.0728 -0.235567,0.14536 -0.353852,0.21722 -0.10143,0.0616 -0.408453,0.24189 -0.305289,0.18322 0.475139,-0.27024 2.249704,-1.30053 2.645992,-1.53028 3.363206,-2.02133 6.763634,-3.9789 10.311807,-5.65886 0.962822,-0.45278 1.989521,-0.71436 3.00522,-1.01662 0.111789,-0.0289 0.221109,-0.0701 0.33537,-0.0868 0.152855,-0.0224 -0.289978,0.10878 -0.440077,0.14532 -0.36958,0.09 -0.740894,0.17276 -1.112305,0.25485 -0.195329,0.0432 -0.401614,0.0478 -0.587817,0.12093 -0.111257,0.0437 0.238188,-0.0203 0.357283,-0.0304 3.292186,-0.27012 6.575935,-0.62058 9.85788,-0.9952 3.841903,-0.44345 7.693654,-0.80231 11.549679,-1.09788 9.200407,-0.56844 17.994357,-3.49108 26.750567,-6.14064 3.97821,-1.17728 7.92272,-2.48016 11.94949,-3.48603 2.40475,-0.58603 4.80038,-1.20873 7.21588,-1.74957 0.91634,-0.19371 1.82835,-0.41627 2.75708,-0.54417 0.39738,-0.0547 0.46831,-0.0833 0.26419,-0.0182 -0.16779,0.0907 -0.38964,0.006 -0.55649,0.0932 -0.005,0.003 0.16563,0.002 0.59798,-0.002 1.04083,-0.009 0.2323,-0.003 1.40501,-0.01 2.21992,0.0121 4.43843,0.002 6.65774,-0.0532 3.00107,-0.0605 5.98196,-0.33902 8.96421,-0.66497 4.30598,-0.56093 8.49307,-1.7142 12.65163,-2.92441 1.28689,-0.35188 0.86424,-0.19937 2.35594,-0.4796 0.68613,-0.0903 1.36076,-0.29291 2.05139,-0.35679 0.0334,-0.003 -0.0658,0.013 -0.099,0.0182 -0.0923,0.0144 -0.18483,0.0271 -0.27725,0.0406 -0.52683,0.0603 -1.05248,0.1322 -1.58051,0.181 -2.06818,0.19115 -2.42242,0.14375 -4.81197,0.18198 -0.12229,0.002 -0.48526,-0.0273 -0.3669,0.004 0.19624,0.0511 0.40365,0.0392 0.6055,0.0586 0.36302,0.0348 0.72607,0.0693 1.0891,0.10398 3.39496,0.36301 6.79792,0.6191 10.20813,0.78059 2.50372,0.10545 5.0098,0.12578 7.51538,0.13028 1.59676,0.0175 3.19187,-0.023 4.78803,-0.0633 2.24041,-0.13549 2.7058,-0.15873 4.68989,-0.30204 3.45536,-0.24055 6.87134,-0.77697 10.2683,-1.43902 1.91041,-0.38013 3.77292,-0.94795 5.6497,-1.45865 0.0419,-0.0114 -0.0828,0.026 -0.12472,0.0374 -0.19173,0.0523 -0.38405,0.10236 -0.57608,0.15355 1.30209,-0.30106 3.03954,-0.79192 4.71404,-1.29077 0.13372,-0.0417 0.26736,-0.0838 0.40118,-0.12517 0.0219,-0.007 -0.0433,0.0148 -0.0653,0.0212 -0.43656,0.12732 -0.87098,0.26241 -1.31028,0.37996 -0.57265,0.15323 -1.14692,0.3012 -1.72505,0.43224 -1.82282,0.41318 -2.14817,0.43431 -3.99937,0.72995 -1.99571,0.27525 -4.00901,0.41132 -6.02315,0.4184 0.14754,0.002 0.49353,0.003 0.70932,0.003 0.2133,5.3e-4 0.1074,2.6e-4 0.31772,5.3e-4 70.71058,0.11069 70.86714,-99.8891868 0.15655,-99.9998818 v 0 c -0.10806,-1.514e-4 -0.0551,-5.88e-5 -0.15888,-2.646e-4 -0.27768,-8.202e-4 -0.55535,-0.00293 -0.83302,-0.00379 -2.52448,0.00225 -5.04955,0.1358119 -7.55217,0.4810662 -3.23267,0.5045681 -6.45088,1.1173637 -9.56149,2.156978 0.95512,-0.2763385 0.86549,-0.259924 1.6855,-0.4693901 0.0948,-0.024209 0.3802,-0.092325 0.28527,-0.068758 -0.41469,0.1029477 -0.82038,0.2010547 -1.23301,0.3045039 -1.02771,0.2639417 -2.05376,0.5299674 -3.07275,0.8260754 -0.0162,0.0047 0.0332,-0.0056 0.0496,-0.0095 0.13701,-0.03247 0.27316,-0.06851 0.41049,-0.09958 0.36338,-0.08221 0.72771,-0.160165 1.09156,-0.240248 1.75054,-0.3173416 1.26505,-0.2515511 3.02762,-0.4823496 0.0968,-0.012676 0.38851,-0.039658 0.29154,-0.028307 -0.18259,0.021373 -0.36569,0.038179 -0.54841,0.058374 -0.23929,0.026448 -0.10684,0.015428 0.0324,0.0081 0.0878,-0.00451 0.35064,-0.025426 0.2635,-0.013536 -0.13095,0.017867 -3.59063,0.2110168 -1.39138,0.1045919 3.39961,-0.056914 0.26182,-0.0084 -0.49877,-0.021884 -1.06004,-0.00135 -2.12018,-0.00386 -3.17997,-0.02939 -1.80738,-0.065025 -3.60255,-0.2793191 -5.40258,-0.4482759 -5.68439,-0.524583 -11.42197,-0.9336704 -17.10434,-0.1308013 -2.46347,0.3304429 -4.91638,0.7319222 -7.35719,1.2021949 -4.01239,0.759836 -8.01507,1.591629 -11.92656,2.779481 -0.71324,0.213745 -0.28192,0.08719 -1.17524,0.339675 -0.12506,0.03535 -0.5041,0.122197 -0.3751,0.10636 0.19445,-0.02387 0.38129,-0.0904 0.57302,-0.130658 1.55181,-0.325827 1.35624,-0.259941 3.38162,-0.569417 0.69332,-0.06594 1.38628,-0.135746 2.07995,-0.197834 0.0907,-0.0081 0.18182,-0.0095 0.27278,-0.01275 0.0726,-0.0026 0.29031,-0.0084 0.21778,-0.005 -0.57163,0.02697 -1.14398,0.04106 -1.71524,0.0759 0.16195,3e-5 0.32395,-0.0032 0.48587,9.1e-5 0.0862,0.0018 -0.17232,0.0044 -0.2585,0.0046 -0.29004,4.77e-4 -0.58007,-0.0019 -0.8701,-0.0027 -0.67075,-0.0017 -1.50619,-0.0035 -2.16979,-0.0026 -0.43927,5.83e-4 -0.87854,0.0025 -1.31782,0.0037 -4.44766,0.03581 -8.90155,0.157035 -13.31996,0.711917 -4.21351,0.564367 -8.40598,1.268495 -12.54636,2.24295 -3.28904,0.750569 -6.56275,1.563204 -9.83566,2.380961 -5.43936,1.400866 -10.818808,3.011747 -16.185645,4.667395 -2.243447,0.679488 -4.492292,1.341155 -6.733678,2.027399 -0.440431,0.134846 -0.94052,0.156761 -1.314759,0.425285 -0.235305,0.168835 0.574743,-0.07235 0.862922,-0.101085 1.112478,-0.110923 2.228906,-0.184231 3.338883,-0.317867 0.557758,-0.06715 -1.120801,0.07886 -1.681202,0.118289 -5.059669,0.39684 -10.114804,0.859383 -15.156484,1.444143 -3.373612,0.386384 -6.75277,0.693353 -10.13197,1.026919 -2.225008,0.27088 -3.472926,0.399076 -5.78312,0.79983 -3.592298,0.623165 -7.134891,1.499193 -10.621163,2.56281 -5.902383,1.839698 -11.726357,3.939569 -17.289094,6.658155 -5.687667,2.795648 -11.284671,5.768141 -16.7025545,9.061238 -1.8616757,1.079484 -3.7379412,2.135574 -5.5540896,3.291173 -0.9586369,0.612571 -1.94120666,1.186905 -2.90907105,1.784596 -1.23090885,0.751126 -2.57380565,1.29612 -3.85244405,1.95744 -0.4463311,0.221316 -1.0863233,0.51988 -1.4604433,0.691529 -0.7915897,0.316457 -1.7415148,0.673375 -2.7361766,1.048078 -4.4114789,1.70525 -8.7381209,3.645532 -12.7540899,6.165069 -1.070936,0.702985 -2.158907,1.380678 -3.212807,2.108954 -4.68077,3.23455 -8.888547,7.1237 -12.617982,11.412098 -2.834761,3.354337 -5.575879,6.800342 -7.897219,10.537344 -0.413047,0.662831 -1.267026,1.969796 -1.872848,2.937975 -1.400299,2.228467 -2.776024,4.472985 -4.060431,6.770809 -0.981183,1.75051 -1.981451,3.4905 -2.938811,5.25417 -33.178581,62.44342 55.1297606,109.36502 88.30834,46.9216 z"
       clip-path="url(#clipPath14572)" />
    <path
       style="fill:#00b2e7;fill-opacity:0.25;stroke-width:0.264583"
       id="path10037"
       d="m 39.685891,204.55784 c 1.415002,-1.76723 2.685484,-3.6446 4.082706,-5.42503 -0.753621,1.08278 -1.759434,1.97393 -2.710704,2.8766 -0.169071,0.15037 -0.341376,0.29718 -0.507217,0.45111 -0.05082,0.0472 0.108572,-0.0863 0.161888,-0.13059 0.285975,-0.2377 0.572603,-0.47464 0.855964,-0.71545 0.947463,-0.80518 1.876544,-1.62966 2.800871,-2.46108 1.174555,-1.00314 2.307035,-2.05409 3.469974,-3.07041 -0.294992,0.26103 -0.587701,0.52503 -0.893025,0.77389 -0.02286,0.0177 -0.09296,0.0687 -0.06857,0.0532 2.869933,-1.83134 5.534467,-3.97968 8.187539,-6.10434 3.307528,-2.69891 6.530377,-5.4985 9.689225,-8.36936 2.516642,-2.25098 4.870775,-4.66838 7.16389,-7.14434 1.863883,-2.02359 3.64214,-4.12409 5.512326,-6.14174 0.258961,-0.28105 0.519798,-0.56038 0.77688,-0.84315 0.863643,-0.94991 1.371246,-1.51776 2.205011,-2.48206 0.302818,-0.35022 0.59976,-0.70549 0.901068,-1.05702 0.03533,-0.0412 0.14424,-0.16229 0.108807,-0.12117 -0.166251,0.19296 -0.334185,0.38446 -0.501277,0.57668 -0.557662,0.64581 -1.525841,1.55612 -0.360659,0.45441 2.041599,-1.82607 -1.305335,1.09468 -1.666824,1.45707 -0.09565,0.0959 0.221795,-0.15548 0.332692,-0.23323 4.740616,-3.35739 9.569122,-6.58622 14.449335,-9.7363 2.475423,-1.5615 4.94466,-3.14666 7.545039,-4.49554 0.88444,-0.47247 1.808,-0.85823 2.71977,-1.27432 1.18242,-0.49979 2.37315,-0.97863 3.56736,-1.44951 1.12989,-0.41271 2.29126,-0.73867 3.44617,-1.07484 3.82037,-1.07699 7.61167,-2.24691 11.36759,-3.53 3.73584,-1.29578 7.38543,-2.80845 10.97949,-4.45229 1.65943,-0.817 3.32278,-1.61714 5.02793,-2.33253 0.29439,-0.12059 0.58829,-0.24238 0.88316,-0.36179 0.59865,-0.24243 1.12107,-0.45165 1.71985,-0.67773 0.15484,-0.0585 0.31024,-0.11553 0.46662,-0.16973 0.0224,-0.008 0.0913,-0.0247 0.0693,-0.016 -0.13017,0.0513 -0.26283,0.096 -0.39424,0.14398 5.43131,-2.00356 10.74933,-4.29626 16.12635,-6.44155 5.12433,-1.98128 10.19851,-4.08754 15.29572,-6.13635 1.31312,-0.49308 2.64233,-0.94632 3.9776,-1.3761 0.34951,-0.0889 -0.0758,0.0175 -0.57865,0.18621 -0.0674,0.0226 0.13796,-0.0346 0.20646,-0.0537 0.4257,-0.11863 0.85281,-0.23247 1.27609,-0.35946 2.32475,-0.6975 2.18423,-0.67026 4.32416,-1.40152 1.0761,-0.28399 2.08577,-0.85632 3.17966,-1.0845 2.05211,-0.578 4.11955,-1.0983 6.17642,-1.65903 2.95941,-0.86842 5.94028,-1.7004 8.82704,-2.79546 1.14028,-0.43256 2.26233,-0.91173 3.39349,-1.3676 3.47167,-1.49405 6.77371,-3.33615 10.02449,-5.25361 0.99112,-0.49416 1.88216,-1.23011 2.90308,-1.66573 -0.0671,0.0384 -0.13613,0.0737 -0.20125,0.11537 -0.0381,0.0244 0.51147,-0.24731 0.25566,-0.12152 -0.97764,0.48075 -1.97231,0.91741 -2.98125,1.32793 0.88763,-0.35098 1.24937,-0.49328 1.91233,-0.75659 0.40837,-0.1622 -0.82034,0.31521 -1.23244,0.46767 0.67004,-0.22716 -0.74738,0.2541 1.12801,-0.39353 0.0789,-0.0273 -0.18659,0.0185 -0.2352,0.0864 -0.0457,0.0639 0.29948,-0.0958 0.22466,-0.0717 -0.77277,0.24902 -0.53426,0.17423 -0.97451,0.311 1.20508,-0.34917 2.40474,-0.71668 3.62334,-1.01665 -0.56002,0.17728 -1.14613,0.25802 -1.71965,0.38495 -0.1409,0.0312 0.28479,-0.0475 0.42816,-0.0639 4.31642,-0.71712 8.63311,-1.42991 12.95891,-2.08971 1.76759,-0.26259 3.53489,-0.52947 5.30805,-0.75241 0.41383,-0.052 1.4344,-0.17431 0.95509,-0.0996 -1.0534,0.10913 -2.11368,0.13126 -3.17199,0.12523 -0.0314,-2.6e-4 -0.12539,-0.002 -0.0941,-10e-4 0.44106,0.0148 0.88303,0.0148 1.32428,0.0187 70.70829,0.57933 71.52758,-99.4173182 0.81928,-99.9966396 v 0 c 0.17358,0.00527 -0.73673,-0.014478 -0.65143,-0.011221 -2.41825,-0.024125 -4.83702,0.051224 -7.24614,0.2726348 -4.13297,0.393818 -8.24605,0.9579301 -12.34879,1.5918207 -4.17927,0.6396214 -8.35681,1.2952941 -12.52123,2.0238272 -3.00693,0.4549677 -6.00758,0.9744729 -8.95121,1.7497659 -1.87172,0.485598 -3.74695,0.971177 -5.59527,1.540746 -0.039,0.01202 0.0794,-0.01902 0.11908,-0.02853 -2.11458,0.597771 -4.21382,1.245682 -6.28251,1.987926 -1.22196,0.438672 -2.83334,1.02701 -3.86286,1.458859 -3.03771,1.208913 -6.00593,2.578255 -8.87347,4.15128 -2.11646,1.164046 -4.21681,2.357329 -6.2888,3.599126 0.56968,-0.311114 -0.19503,0.112912 -0.28102,0.167658 -0.0174,0.01105 0.0386,-0.01427 0.0572,-0.02316 1.38055,-0.662469 0.11608,-0.08383 2.18328,-0.994267 2.07307,-0.786664 1.11926,-0.457255 2.69472,-0.968333 1.37617,-0.446431 -3.45207,1.12744 -2.08673,0.654374 -2.94003,0.820222 -5.91475,1.516886 -8.83003,2.426679 -2.36293,0.731496 -4.71735,1.489281 -7.03882,2.345042 0.4936,-0.147413 0.53865,-0.161769 1.2269,-0.357638 0.37821,-0.107632 -0.75863,0.207423 -1.1368,0.315209 -0.68371,0.194874 -1.36698,0.391512 -2.04763,0.596834 -0.49125,0.148185 -0.97857,0.309081 -1.46786,0.463624 -3.41089,1.125336 -6.81044,2.291022 -10.14585,3.62639 -5.00349,2.015884 -9.98807,4.078642 -15.01924,6.025546 -1.96592,0.784572 -4.9031,1.952567 -6.85655,2.749161 -1.72159,0.702046 -2.95,1.220566 -4.5962,1.916782 -0.24016,0.101569 -0.96959,0.381138 -0.7198,0.306306 0.66741,-0.199943 1.31705,-0.455007 1.97558,-0.682511 -3.60595,1.210172 -7.16174,2.559727 -10.661479,4.050998 -2.869473,1.222655 -5.716588,2.495079 -8.508286,3.887692 1.862876,-0.781973 -0.849315,0.366649 -1.18844,0.468678 -2.237906,0.843393 -4.58712,1.365924 -6.864122,2.08797 -4.037123,1.194543 -8.059409,2.452584 -11.974576,4.008919 -2.799582,1.108479 -5.590365,2.241557 -8.335944,3.479008 -2.809957,1.283677 -5.61514,2.579915 -8.33284,4.052599 -5.014084,2.701142 -9.914546,5.604743 -14.692206,8.706467 -6.777167,4.38672 -13.493471,8.872299 -20.026719,13.616956 -2.591967,1.956442 -5.175072,3.93573 -7.500253,6.211786 -1.568187,1.482762 -3.1274548,2.976581 -4.5882882,4.566979 -1.1409066,1.267065 -2.2413886,2.566217 -3.3938842,3.821677 -1.8548682,2.01963 -3.67214181,4.07234 -5.4939068,6.12175 -0.1434387,0.15822 -0.6366093,0.52992 -0.4303159,0.47467 0.2327795,-0.0623 0.3468728,-0.33464 0.5227199,-0.49942 0.1046154,-0.098 -0.2024189,0.20313 -0.3061771,0.30206 -0.3073308,0.29305 -0.4251391,0.40039 -0.7592093,0.7112 -1.6545233,1.5154 -3.3529166,2.98081 -5.0768349,4.41678 -0.2496828,0.20459 -1.0482106,0.70972 -0.7353866,0.63009 0.084314,-0.0215 0.2975684,-0.18015 0.225629,-0.13122 -0.641726,0.43649 -1.2995257,0.84914 -1.9309129,1.30099 -2.798119,1.96277 -5.542474,4.00586 -8.104787,6.27248 -1.444289,1.27389 -2.873246,2.56487 -4.32447,3.8309 -0.411537,0.37111 -1.829713,1.58533 -2.799382,2.39812 -3.658334,3.35651 -7.119406,6.91819 -10.121406,10.88473 -1.178631,1.53798 -2.342099,3.08705 -3.482583,4.65359 -43.689749,55.59854 34.9385634,117.38517 78.628313,61.78656 z"
       clip-path="url(#clipPath14644)" />
    <path
       style="fill:#00b2e7;fill-opacity:0.25;stroke-width:0.264583"
       id="path10039"
       d="m 49.589734,250.78408 c 2.240667,-2.702 4.28285,-5.55556 6.226054,-8.47616 1.385236,-2.14312 2.716577,-4.31655 3.993472,-6.52571 1.392045,-2.64413 0.86563,-1.57914 1.984161,-3.91285 0.04276,-0.0892 0.168307,-0.35816 0.125547,-0.26894 -0.519858,1.08469 -1.068366,2.15416 -1.65821,3.20268 -0.591103,1.037 -1.257509,2.06949 -1.929365,3.03635 -0.2096,0.4999 -2.07327,2.09566 -0.710689,1.0817 2.435113,-1.73744 4.86896,-3.47712 7.337731,-5.16655 5.238817,-3.18713 9.911268,-7.13867 14.502154,-11.17792 4.808138,-4.28646 9.22895,-8.99729 14.133052,-13.17782 1.88627,-1.60796 2.384359,-1.92456 4.330983,-3.35966 3.886136,-2.76751 7.874606,-5.40717 11.997846,-7.81003 1.72573,-0.93249 3.51211,-1.74702 5.27921,-2.59707 4.11275,-1.90883 8.10007,-4.05183 12.00673,-6.35023 5.56816,-3.35844 10.66883,-7.3963 15.59495,-11.62071 3.05545,-2.68865 5.99479,-5.50447 9.00837,-8.23928 2.122,-1.92801 4.21812,-3.88318 6.44372,-5.6919 3.30521,-2.61737 6.70718,-5.11035 10.06392,-7.66119 2.82452,-2.12328 5.61512,-4.29054 8.38069,-6.48986 1.54036,-1.22965 3.07139,-2.47076 4.62436,-3.68447 0.95302,-0.77004 1.96426,-1.4609 2.97546,-2.15087 2.10503,-1.24578 4.21398,-2.48528 6.31926,-3.73077 3.08403,-1.84679 6.10333,-3.79618 9.25583,-5.52605 1.55962,-0.86498 3.17643,-1.61315 4.80996,-2.32509 1.4708,-0.59604 2.91481,-1.2603 4.39621,-1.82985 2.92734,-1.09552 5.76919,-2.40147 8.60864,-3.70357 2.01668,-0.90702 3.98872,-1.90798 5.98838,-2.85097 1.30404,-0.58572 2.6164,-1.15103 3.94451,-1.68001 2.13897,-0.82814 4.27645,-1.65955 6.40661,-2.5102 0.25818,-0.10268 0.51535,-0.20799 0.77456,-0.30805 0.10637,-0.0411 -0.20956,0.0901 -0.31596,0.13102 -0.22481,0.0866 -0.4504,0.1712 -0.67753,0.25146 -1.27397,0.45019 -2.57162,0.76732 -3.88256,1.09193 -1.16641,0.38307 -2.44982,0.31117 -3.62521,0.62082 -0.12267,0.0323 0.25231,-0.0279 0.379,-0.0344 0.057,-0.003 -0.11458,0.008 -0.16951,0.0237 -0.0226,0.006 0.0468,0.003 0.0702,0.004 0.84641,-0.0282 0.7312,0.0236 1.80198,0.0873 0.60476,0.0737 -0.23733,-0.0266 0.78523,0.0802 0.0533,0.006 0.21254,0.0256 0.15906,0.0226 -0.54219,-0.0296 -1.099,-0.13495 -1.62832,-0.21499 -2.97053,-0.43063 -5.62812,-1.42109 -8.4734,-2.34608 66.02332,25.31644 101.82615,-68.054621 35.80285,-93.371063 v 0 c -3.35771,-1.108992 -6.67358,-2.315868 -10.19797,-2.804494 -3.67941,-0.595465 -7.38131,-1.027841 -11.10547,-1.223411 -4.22288,-0.216873 -8.45442,-0.342967 -12.67885,-0.07677 -4.04541,0.241785 -8.09506,0.59143 -12.06412,1.450363 -4.10036,0.964232 -8.15797,2.098413 -12.04388,3.748356 -2.25631,0.901263 -4.52603,1.767604 -6.78498,2.662211 -3.11564,1.266213 -6.21141,2.582222 -9.25762,4.008633 -1.63754,0.776541 -3.25939,1.585119 -4.90427,2.345767 -1.69486,0.777927 -2.3158,1.120994 -4.00805,1.730853 -2.5761,1.036881 -5.13557,2.114934 -7.68629,3.212722 -4.43536,1.967667 -8.81282,4.065669 -13.05373,6.427936 -3.90627,2.186649 -7.74881,4.476996 -11.5491,6.842378 -4.0395,2.390699 -8.12318,4.717521 -12.0062,7.36019 -2.71077,1.866718 -5.39429,3.774313 -7.97569,5.817981 -1.76966,1.385044 -3.52238,2.791151 -5.27495,4.197731 -2.18525,1.739866 -4.39343,3.450101 -6.62776,5.126654 -4.45121,3.383407 -8.972154,6.678647 -13.296736,10.225064 -3.393739,2.826205 -6.713694,5.733862 -9.953657,8.73556 -2.428301,2.208633 -4.82713,4.448868 -7.242096,6.671949 -0.552704,0.50485 -0.377706,0.35444 -0.970949,0.85604 -0.237374,0.2007 -0.48818,0.38574 -0.718357,0.59466 -0.01725,0.0156 -0.05674,0.0678 -0.03456,0.0607 0.105757,-0.0337 0.199787,-0.0968 0.29968,-0.14518 -0.04392,0.0349 -0.114188,0.0513 -0.131751,0.1046 -0.0113,0.0343 0.13635,-0.0434 0.105425,-0.0248 -1.27889,0.77034 -2.712558,1.27194 -4.020679,1.98758 -4.374116,2.10482 -8.752192,4.21227 -12.929061,6.69541 -7.437003,4.44036 -14.720376,9.1503 -21.665234,14.33316 -1.78858,1.38337 -3.6049,2.73161 -5.365744,4.15012 -6.630727,5.34162 -12.729518,11.28119 -18.881543,17.15474 -1.849438,1.6963 -1.607923,1.52026 0.473144,0.0925 0.417761,-0.28662 -0.852511,0.54767 -1.27728,0.8238 -0.588611,0.38264 -1.177584,0.76476 -1.762846,1.1525 -0.7033067,0.46595 -1.4018665,0.93903 -2.1027996,1.40854 -4.6995934,3.2358 -9.3801998,6.51023 -13.8586444,10.0487 -5.221047,4.31088 -10.250334,8.87174 -14.424602,14.2324 -2.266853,2.8877 -4.466404,5.83705 -6.298071,9.02615 -0.884763,1.55066 -0.795238,1.36647 -1.890169,3.50491 -0.195516,0.38185 -0.373409,0.77247 -0.558596,1.15944 -0.05027,0.10504 -0.19988,0.42069 -0.147765,0.31655 0.174615,-0.34891 0.33586,-0.70451 0.515303,-1.05097 0.267372,-0.51622 0.54995,-1.02442 0.824923,-1.53663 0.234791,-0.39654 0.46658,-0.79488 0.704371,-1.18963 0.0607,-0.10077 0.253542,-0.3964 0.191006,-0.29676 -0.464646,0.74033 -0.946031,1.47123 -1.399099,2.21875 -0.04053,0.0669 0.08884,-0.12869 0.13326,-0.19304 0.192546,-0.27323 0.79411,-1.07565 0.598046,-0.80493 -0.914201,1.26233 0.376084,-0.51555 -0.557032,0.72671 -44.754715,54.74501 32.6664136,118.03773 77.421127,63.29272 z"
       clip-path="url(#clipPath14654)" />
    <path
       style="fill:#00b2e7;fill-opacity:0.25;stroke-width:0.264583"
       id="path10041"
       d="m 55.467781,312.48527 c -0.05925,0.0705 -0.241967,0.27744 -0.177752,0.21145 1.617435,-1.66219 3.23225,-3.32044 4.934484,-4.89775 2.871327,-2.54275 5.696151,-5.13488 8.469117,-7.78455 2.392431,-2.21543 4.686498,-4.53408 7.073148,-6.75536 2.713509,-2.50336 5.378291,-5.0582 8.021341,-7.63559 3.261879,-3.19378 6.445359,-6.4662 9.598062,-9.76738 2.804435,-2.91904 5.546283,-5.8977 8.357909,-8.80981 1.88418,-2.03361 3.9458,-3.88119 6.00244,-5.73526 4.34158,-3.83009 8.60192,-7.74949 12.81804,-11.71677 4.49956,-4.16209 8.76339,-8.56297 12.81683,-13.15823 1.50842,-1.78747 1.61779,-1.88531 3.04746,-3.70309 0.35568,-0.45222 0.69983,-0.9134 1.04972,-1.37012 0.0852,-0.11123 0.34113,-0.4447 0.25557,-0.33374 -0.15337,0.1989 -0.29787,0.40488 -0.459,0.59754 -0.62877,0.75184 -1.27344,1.49022 -1.91016,2.23533 -0.22653,0.24176 -0.45306,0.48352 -0.67959,0.72528 -0.0587,0.0674 -0.24954,0.25342 -0.17621,0.20226 0.48718,-0.33987 0.90916,-0.76475 1.36707,-1.14313 1.627,-1.34441 1.5452,-1.27526 3.27,-2.69333 3.35112,-2.7647 6.75925,-5.45725 10.07038,-8.26993 4.61782,-3.90699 8.62408,-8.43835 12.38996,-13.15238 2.81532,-3.58079 5.36822,-7.35688 7.83925,-11.18005 1.63684,-2.63995 3.37123,-5.21609 5.13729,-7.77061 2.48315,-3.51376 4.88178,-7.08534 7.22632,-10.69271 0.99244,-1.58062 2.1073,-3.07382 3.28412,-4.52047 0.003,-0.005 0.83039,-0.83528 0.4315,-0.39071 -2.35131,2.00872 1.68608,-1.10171 1.95371,-1.2983 1.81614,-1.33352 3.6672,-2.61814 5.51864,-3.90184 3.13696,-2.09431 6.14288,-4.3713 9.1259,-6.67698 3.78374,-2.89979 7.46307,-5.92761 11.10791,-8.99893 2.9788,-2.47229 5.88883,-5.02431 8.79467,-7.58114 0.26059,-0.24602 2.38665,-1.99498 0.97377,-0.83456 2.24663,-1.72432 4.36634,-3.60145 6.45909,-5.50694 1.88004,-1.67117 3.69866,-3.41778 5.67319,-4.97921 0.007,-0.006 2.15705,-1.45332 0.95028,-0.63377 -2.61257,1.38744 -0.64615,0.51098 -0.049,0.26744 0.029,0.20302 -2.96263,0.91829 -1.39768,0.62067 2.62158,-0.55384 5.23235,-1.16735 7.87703,-1.60325 2.80519,-0.42463 5.62153,-0.77138 8.44264,-1.07067 2.43434,-0.20058 4.86215,-0.46962 7.29383,-0.69835 1.34333,-0.11029 0.75852,-0.0501 -0.0637,-0.016 -0.0973,0.003 -0.19468,0.006 -0.29202,0.008 70.70004,-1.22674 68.96517,-101.211686 -1.73487,-99.984945 v 0 c -0.27874,0.0059 -0.55747,0.0118 -0.83621,0.0177 -2.16736,0.07276 -4.33176,0.207254 -6.49025,0.41936 -2.87063,0.272544 -5.73816,0.575818 -8.61041,0.831678 -4.96156,0.541006 -9.91767,1.151157 -14.84175,1.971532 -4.18497,0.740201 -8.34722,1.593143 -12.49515,2.51882 -4.79831,1.089437 -9.56364,2.356577 -14.13714,4.196278 -4.58865,1.873049 -9.1345,3.876752 -13.42959,6.364684 -4.69023,2.82035 -9.2432,5.871996 -13.46853,9.361075 -3.32168,2.736522 -6.5641,5.563949 -9.72978,8.480033 -2.33467,2.127639 0.19185,-0.166838 -0.43239,0.436931 -1.97077,1.54704 -3.89401,3.151232 -5.77495,4.806592 -2.35208,2.074625 -4.70962,4.142936 -7.12606,6.143094 -2.59136,2.184476 -5.19534,4.350922 -7.89474,6.40245 -1.59102,1.236375 -3.17767,2.472124 -4.87624,3.561274 -2.62234,1.818494 -5.23818,3.646775 -7.80882,5.538073 -3.67132,2.705081 -7.3514,5.418529 -10.69463,8.530001 -3.83734,3.60985 -7.49931,7.40635 -10.76126,11.55162 -3.11626,3.95555 -6.125,7.99669 -8.834478,12.2451 -1.818714,2.81215 -3.703595,5.57993 -5.63549,8.31562 -2.402102,3.4848 -4.768509,6.99457 -7.010405,10.58533 -0.625462,1.007 -1.313252,1.97137 -1.962603,2.96238 -1.109736,1.42355 0.44949,-0.30836 0.817404,-0.58714 0.02426,-0.0184 -0.0357,0.0493 -0.05355,0.0739 -2.655332,2.47294 -5.750952,4.46265 -8.440298,6.90014 -4.528397,3.72442 -9.101685,7.42539 -13.151474,11.6807 -2.920019,3.30655 -2.261709,2.44104 -4.204978,4.92009 -1.461715,1.86472 -0.02222,0.0332 -0.149731,0.26912 -1.874115,2.22241 -4.008453,4.20407 -6.112044,6.2044 -3.710517,3.49644 -7.470648,6.93863 -11.294197,10.31147 -3.780224,3.41877 -7.514995,6.8885 -11.018319,10.59422 -2.906948,3.02517 -5.76698,6.09469 -8.664079,9.12926 -2.325688,2.44046 -4.675372,4.85842 -7.080092,7.22129 -2.165516,2.11391 -4.3518052,4.206 -6.5784125,6.25572 -2.6361009,2.47935 -5.214127,5.01849 -7.85330702,7.49457 -2.56966038,2.47182 -5.26015538,4.80909 -7.88109988,7.22593 -3.9098366,3.70812 -7.7575966,7.49001 -11.3457356,11.51387 -46.633985,53.15325 28.5361043,119.10366 75.170089,65.95038 z"
       clip-path="url(#clipPath14664)" />
    <path
       style="fill:#00b2e7;fill-opacity:0.25;stroke-width:0.264583"
       id="path10043"
       d="m 80.288425,345.73495 c 1.095314,-5.34551 2.331429,-10.79539 3.594084,-16.14884 1.024697,-4.3344 2.105242,-8.65444 3.520708,-12.87862 1.054414,-3.25975 2.222664,-6.47433 3.611096,-9.60636 1.067359,-2.53249 2.51038,-4.87437 4.017161,-7.16312 1.589588,-2.35651 3.203607,-4.69834 4.916707,-6.96719 1.083039,-1.60607 2.415309,-2.9572 3.773919,-4.31633 1.95584,-1.90003 4.15937,-3.52706 6.35316,-5.13819 4.20802,-3.01201 8.41517,-6.03398 12.73613,-8.88317 2.01572,-1.31606 4.12051,-2.48727 6.20161,-3.69504 4.21005,-2.4108 8.23977,-5.10659 12.17483,-7.93924 4.90844,-3.54567 9.41285,-7.58164 13.76108,-11.78303 5.70944,-5.49268 11.25144,-11.14145 16.61267,-16.97408 5.75955,-6.29906 11.21071,-12.86574 16.65788,-19.4332 4.11082,-4.74328 8.21635,-9.48566 12.17831,-14.35486 2.04276,-2.51792 4.09482,-5.03579 6.33421,-7.38324 2.5886,-2.65295 5.34976,-5.1267 8.08268,-7.62782 4.74237,-4.42298 9.40249,-8.93293 14.11843,-13.38392 2.60181,-2.27408 5.48056,-4.23573 8.34033,-6.17601 0.37104,-0.2381 0.73186,-0.49292 1.1131,-0.7143 0.0567,-0.0329 -0.0805,0.1057 -0.13289,0.14513 -0.1772,0.1333 -0.36266,0.2559 -0.55251,0.37047 -0.73007,0.4406 -1.46054,0.76383 -2.24918,1.082 -3.37615,1.26513 -6.95327,1.63752 -10.5256,1.78274 -4.18237,-0.15469 -3.18688,-0.0161 -6.25145,-0.37616 -0.30253,-0.0355 -0.60425,-0.0783 -0.90508,-0.12608 -0.14774,-0.0235 -0.56865,-0.15674 -0.4421,-0.077 0.16194,0.10204 0.36988,0.0987 0.55482,0.14802 2.8671,0.81122 5.76213,1.51725 8.6461,2.26456 0.052,0.0188 0.21097,0.0636 0.15611,0.0564 -1.40607,-0.18381 -3.52524,-1.23635 -4.81632,-1.79327 64.01998,30.02401 106.48037,-60.51392 42.46037,-90.537934 v 0 c -4.14108,-1.840886 -8.36986,-3.469158 -12.78255,-4.545261 -2.93697,-0.757441 -5.88031,-1.489795 -8.80217,-2.304756 -5.99869,-1.522751 -12.07534,-2.744531 -18.30013,-2.707397 -7.04342,0.199403 -14.03868,1.079204 -20.73682,3.388543 -8.11418,2.852123 -15.86331,6.432666 -22.91335,11.421242 -7.14533,4.912399 -14.18495,10.034497 -20.51138,15.986707 -4.33811,4.096976 -8.63695,8.235286 -12.98068,12.326316 -4.64972,4.25535 -9.29814,8.51926 -13.62319,13.11016 -3.78133,4.07202 -7.42579,8.26762 -10.89255,12.61206 -3.74171,4.6148 -7.69952,9.04107 -11.53809,13.57495 -4.40801,5.31506 -8.79782,10.64752 -13.450695,15.75288 -4.029374,4.4328 -8.270438,8.65003 -12.576715,12.81361 -0.893191,0.88443 -1.704342,1.74532 -2.773733,2.53361 -1.160952,0.87238 -2.370701,1.66554 -3.635695,2.3825 -3.840339,2.2297 -7.691419,4.44607 -11.383592,6.91832 -5.81361,3.88415 -11.541593,7.89835 -17.187568,12.02232 -6.278684,4.72374 -12.445672,9.6244 -17.937062,15.26646 -4.450808,4.57415 -8.716719,9.31964 -12.48249,14.48209 -3.088157,4.15499 -6.07421,8.38614 -8.906563,12.72037 -4.4178123,6.93105 -8.5143338,14.07614 -11.73140185,21.65511 -2.49580275,5.85374 -4.79685725,11.78303 -6.73976065,17.84577 -2.2999507,7.01638 -4.2428505,14.13703 -5.9048305,21.33211 -2.523296,10.75619 -5.158074,21.56775 -6.042264,32.60767 -4.54828,70.56427 95.244635,76.9965 99.792915,6.43226 z"
       clip-path="url(#clipPath14674)" />
    <path
       style="fill:none;fill-opacity:0.25;stroke-width:0.264583"
       d="M 0.35656738,370.91844 C -0.3979243,373.8876 -1.139325,376.85989 -1.8407145,379.84193 -12.357669,427.20065 30.291678,452.26698 63.055583,441.04801 52.921303,435.20114 29.904589,411.79325 0.35656738,370.91844 Z"
       id="path12645"
       clip-path="url(#clipPath14341)" />
    <path
       style="fill:none;fill-opacity:0.25;stroke-width:0.264583"
       d="m 28.983244,318.49322 c -0.267219,0.72983 -0.534283,1.4597 -0.801502,2.18953 0.09185,-0.0267 0.184478,-0.0565 0.276469,-0.0837 0.212813,-0.79866 0.421063,-1.58621 0.525033,-2.10582 z"
       id="path12643"
       clip-path="url(#clipPath12863)" />
    <path
       style="fill:none;fill-opacity:0.25;stroke-width:0.264583"
       d="m 33.792769,316.26803 c -0.06195,-0.13771 -0.788588,1.39871 -1.57148,3.0763 0.260731,-0.0944 0.521493,-0.19501 0.782381,-0.29249 0.236148,-0.79543 0.453302,-1.48154 0.697632,-2.32595 0.08052,-0.27828 0.107399,-0.42244 0.09147,-0.45786 z"
       id="path12641"
       clip-path="url(#clipPath12701)" />
    <path
       style="fill:none;fill-opacity:0.25;stroke-width:0.264583"
       d="m 34.494535,326.2328 c 0.707674,-0.93733 1.344078,-1.80373 1.832447,-2.52646 -0.179922,0.01 -0.3499,0.0172 -0.52555,0.0258 -0.44309,0.82934 -0.876275,1.66445 -1.306897,2.50062 z"
       id="path12639"
       clip-path="url(#clipPath12711)" />
    <path
       style="fill:none;fill-opacity:0.25;stroke-width:0.264583"
       d="m 32.332393,326.61986 c -0.641845,0.54326 -1.283618,1.08661 -1.925463,1.62987 -0.08087,0.0116 -0.200629,0.0539 -0.305408,0.0842 -0.844167,2.5201 -1.567882,4.50719 -2.208651,6.16655 1.368257,-1.65324 2.820077,-3.43282 4.257105,-5.24257 0.07624,-0.30625 0.152394,-0.61266 0.206705,-0.92398 0.04497,-0.25774 -0.511956,-0.4141 -0.423746,-0.66042 0.103996,-0.29039 0.27989,-0.73079 0.399458,-1.05368 z"
       id="path12637"
       clip-path="url(#clipPath12721)" />
    <path
       style="fill:none;fill-opacity:0.25;stroke-width:0.264583"
       d="m 32.08383,323.84018 c 0.417854,-9.8e-4 0.85761,-0.008 1.309997,-0.0176 0.228249,-0.58459 0.476596,-1.20945 0.726571,-1.83865 -0.722648,0.61196 -1.401693,1.23197 -2.036568,1.85622 z m 1.309997,-0.0176 c -0.408369,1.04592 -0.743972,1.93996 -1.061434,2.79725 1.136017,-0.96154 2.272045,-1.92304 3.408061,-2.88458 -0.824515,0.0401 -1.614878,0.0713 -2.346627,0.0873 z"
       id="path12635"
       clip-path="url(#clipPath12731)" />
    <path
       style="fill:none;fill-opacity:0.25;stroke-width:0.264583"
       d="m 31.553113,323.84742 c -0.08914,0.28401 -0.166663,0.50948 -0.254248,0.78548 0.24793,-0.26464 0.516399,-0.52864 0.784965,-0.79272 -0.169286,4e-4 -0.367018,0.008 -0.530717,0.007 z"
       id="path12633"
       clip-path="url(#clipPath12741)" />
    <path
       style="fill:none;fill-opacity:0.25;stroke-width:0.264583"
       d="m 25.822713,318.3692 c -1.580369,1.3261 -2.417355,2.48299 -2.210201,3.38429 0.511192,-0.0889 1.026105,-0.1889 1.545642,-0.30231 0.221714,-0.99004 0.44102,-1.99271 0.664559,-3.08198 z"
       id="path12631"
       clip-path="url(#clipPath12878)" />
    <path
       style="fill:none;fill-opacity:0.25;stroke-width:0.264583"
       d="m 21.798153,320.84347 c 1.18399,-1.01284 3.185647,-2.38643 4.169254,-3.18999 0.58779,-2.92732 1.158428,-6.15078 1.61954,-9.55032 0.216825,-1.59857 -1.494508,2.8602 -2.189531,4.31601 -0.798284,1.67209 -1.520372,3.37952 -2.289266,5.06533 -0.336798,0.73844 -0.86239,2.20265 -1.309997,3.35897 z m 4.169254,-3.18999 c -0.04838,0.24094 -0.09612,0.47902 -0.144694,0.71572 0.924383,-0.77566 2.098204,-1.60766 3.489193,-2.48616 -1.191379,0.50608 -2.413981,1.00407 -3.259233,1.70584 -0.02044,0.017 -0.06379,0.047 -0.08527,0.0646 z"
       id="path12629"
       clip-path="url(#clipPath12888)" />
    <path
       style="fill:none;fill-opacity:0.25;stroke-width:0.264583"
       d="m 24.126693,302.91949 c -1.52765,5.22338 -3.055535,10.44647 -4.583183,15.66985 0.06234,-2.01138 0.955204,-7.89423 0.187069,-6.03426 -2.11602,5.12376 -2.421487,10.85199 -4.326351,16.05794 -0.368972,1.00845 -0.380072,-2.12546 -0.378272,-3.19929 0.0029,-1.78514 0.899266,-5.94059 0.8785,-7.26106 -0.989311,2.52864 -1.880649,5.09142 -2.737818,7.66569 -0.193804,1.237 -0.396604,2.46996 -0.705383,3.65714 0.09914,-0.84534 0.211998,-1.69004 0.332796,-2.53422 -1.357966,4.15667 -2.607238,8.34975 -3.8323241,12.54704 -1.3561026,4.76578 -2.7007129,9.53655 -4.0276611,14.31231 42.4310162,47.1033 61.2847002,75.39932 63.5258382,85.00618 12.628481,-6.15581 23.098705,-18.2736 27.320813,-37.2861 2.810196,-11.62755 6.081093,-23.14522 9.358603,-34.64905 1.59626,-5.03046 2.73317,-10.26065 5.1108,-15.00322 3.8099,-7.45349 7.84128,-14.79293 11.73572,-22.20329 4.58063,-8.39797 8.8913,-16.97426 13.74283,-25.22585 -1.99982,0.24442 -4.24194,0.50823 -7.33237,0.85266 -14.58477,1.62539 -29.216029,2.78474 -43.828335,4.1305 -0.303892,0.25456 -0.584481,0.52679 -0.831474,0.82424 -1.448284,1.74407 3.198541,5.16215 1.478463,6.63887 -2.942089,2.52582 -7.646785,1.2929 -11.470101,1.93941 -16.967592,2.86918 -28.833162,4.37232 -36.763131,4.84984 -0.447385,0.82412 -0.895169,1.64808 -1.342554,2.4722 -0.0031,0.29974 -0.921595,1.60265 -1.190625,2.19366 0.396929,-0.73117 0.793697,-1.46249 1.190625,-2.19366 7.79e-4,-0.0751 -0.04008,-0.10432 -0.181384,-0.0238 -0.801539,0.45688 -1.368446,1.20369 -1.920813,1.96835 -0.844038,1.65964 -1.681107,3.32278 -2.544547,4.97179 0.285571,-0.98997 0.632038,-1.96567 0.925524,-2.95382 -2.366977,2.70858 -2.941562,3.37061 -4.180623,4.79299 -2.166574,5.53275 -3.008585,6.06084 -1.853634,2.12493 -2.121725,2.43676 -2.155548,2.4645 0.04289,-0.16175 0.549091,-1.83578 1.55364,-4.64389 2.968811,-8.18348 -0.219379,0.0374 -0.375865,0.025 -0.296106,-0.17208 0.270379,-0.66795 0.694184,-1.35436 1.192692,-2.04639 0.343013,-0.82673 0.736583,-1.73273 1.123446,-2.63239 -0.304213,-0.006 -0.585717,-0.0177 -0.869198,-0.0289 -2.111635,3.95829 -1.638365,3.13797 -0.287838,-0.01 -0.49627,-0.0233 -0.950836,-0.0573 -1.382344,-0.0971 -0.246245,0.88439 -0.530383,1.67296 -0.884701,2.25567 -0.696755,1.14589 -0.370371,-0.33161 0.15813,-2.32699 -0.176171,-0.0218 -0.356031,-0.0427 -0.519865,-0.0677 -0.674773,1.84294 -1.349391,3.68592 -2.024166,5.52886 -0.647124,1.17382 0.167388,-2.67543 0.251148,-4.01319 -4.373269,11.00623 -2.773875,7.41421 -0.550354,-2.1239 -0.704361,-0.32201 -1.085729,-0.72488 -1.193726,-1.19476 -0.750352,0.13046 -1.494177,0.24359 -2.222603,0.31522 -0.04469,0.004 -0.068,-0.001 -0.106454,0 -0.211161,0.43709 -0.346551,0.57886 -0.309541,0.0496 0.0021,-0.0302 0.0061,-0.0602 0.0083,-0.0904 -0.138158,-0.0683 -0.112082,-0.21514 0.03876,-0.42065 0.500775,-6.29168 2.082565,-12.45709 3.105754,-18.68775 z m -3.105754,18.68775 c -0.01118,0.14042 -0.02868,0.28011 -0.03876,0.42065 0.06342,0.0313 0.162328,0.0458 0.301273,0.0408 0.142603,-0.29517 0.317101,-0.7148 0.514698,-1.22524 -0.342329,0.29283 -0.627108,0.55927 -0.777214,0.76377 z m 9.894487,2.22416 c 0.217016,0.004 0.409967,0.0146 0.637687,0.016 0.444853,-1.41744 0.923016,-3.0218 1.404565,-4.64106 -0.746549,1.64621 -1.414942,3.16621 -2.042252,4.62504 z m 1.23455,5.42654 c -0.07105,0.28537 -0.148149,0.56921 -0.232028,0.85163 0.321405,-0.36779 0.223407,-0.25655 0.567924,-0.65061 0.376903,-0.42306 0.711876,-0.89776 1.051099,-1.36736 0.315994,-0.62134 0.638457,-1.23916 0.957564,-1.8588 -0.71962,0.95315 -1.503955,1.9665 -2.344559,3.02514 z m 4.177006,-5.5516 c 0.224137,-0.0122 0.423922,-0.0176 0.65474,-0.0315 1.152397,-2.12282 2.304756,-4.24579 3.457153,-6.36861 -0.225067,0.15067 -0.449588,0.30318 -0.677478,0.45837 -0.410412,0.71547 -0.838478,1.46621 -1.164786,2.01228 -0.283392,0.47425 -0.954443,0.63206 -1.228866,1.11156 -0.520414,0.90933 -1.021855,1.8292 -1.516187,2.75281 0.383617,-0.3247 0.767218,-0.64941 1.150835,-0.9741 -0.173526,0.29419 -0.422274,0.66459 -0.675411,1.03921 z"
       id="path12627"
       clip-path="url(#clipPath14391)" />
    <path
       style="fill:none;fill-opacity:0.25;stroke-width:0.264583"
       d="m 32.531348,313.96895 c -0.04723,0.0266 -0.09877,0.0536 -0.145728,0.0801 -0.559683,0.65541 -1.487065,1.13674 -2.496488,1.58285 -0.277807,1.41366 -0.531859,3.08499 -0.821656,4.78265 0.767052,-0.23627 1.536434,-0.48464 2.30942,-0.75448 0.775637,-2.22079 1.34638,-4.40539 1.154452,-5.69112 z"
       id="path12625"
       clip-path="url(#clipPath12908)" />
    <path
       style="fill:none;fill-opacity:0.25;stroke-width:0.264583"
       d="m 38.692729,310.73297 c -0.767151,0.38436 -1.556912,0.77145 -2.287716,1.15032 -1.231792,2.54173 -2.364169,4.94097 -3.370854,7.15718 0.896061,-0.33518 1.788555,-0.67713 2.682007,-1.04128 0.98465,-2.42527 1.977932,-4.836 2.976563,-7.26622 z m -2.287716,1.15032 c 1.358859,-2.80393 2.869172,-5.80829 4.517037,-8.9917 -3.116541,0.94983 -5.393307,1.6303 -8.974129,2.72851 -15.896997,4.87554 0.545221,-1.97029 0.997872,6.85437 0.02835,0.55261 -0.13327,1.01314 -0.422714,1.4118 0.0045,0.0254 0.0044,0.0565 0.0083,0.0827 1.207359,-0.67979 2.507425,-1.37736 3.873665,-2.08566 z m -4.019393,2.16576 c 0.0462,-0.0541 0.09639,-0.10621 0.137459,-0.16278 -0.05317,-0.29744 -0.149895,-0.54299 -0.298173,-0.72399 -1.226646,-1.49738 -1.83115,-0.0441 -2.312003,2.34869 0.776346,-0.47747 1.590119,-0.96307 2.472717,-1.46192 z"
       id="path12623"
       clip-path="url(#clipPath12918)" />
    <path
       style="fill:none;fill-opacity:0.25;stroke-width:0.264583"
       d="m 45.89694,307.25205 c 0.13944,-0.0648 0.283419,-0.12847 0.42323,-0.19327 -0.03931,-0.12714 -0.07755,-0.24461 -0.116789,-0.37104 -0.102118,0.18812 -0.204321,0.37619 -0.306441,0.56431 z"
       id="path12621"
       clip-path="url(#clipPath12801)" />
    <path
       style="fill:none;fill-opacity:0.25;stroke-width:0.264583"
       d="m 43.432491,298.14408 c -0.172643,0.27953 -0.394466,0.6655 -0.727604,1.29449 -0.638581,1.20568 -1.183864,2.2959 -1.782837,3.45302 0.38211,-0.11646 0.724866,-0.22058 1.100191,-0.33486 0.76264,-1.90604 1.275609,-3.26032 1.53479,-4.05867 -0.04299,-0.12721 -0.08167,-0.22764 -0.12454,-0.35398 z m -1.41025,4.41265 c -0.900053,2.24945 -2.089225,5.15793 -3.329512,8.17624 2.176754,-1.09059 4.448998,-2.19305 6.820255,-3.29902 0.252128,-0.45901 0.350729,-0.62927 0.590145,-1.06454 -0.495408,-1.59112 -0.984886,-3.12688 -1.468127,-4.60695 -0.898825,0.27376 -1.721521,0.52289 -2.612761,0.79427 z m 3.490743,4.87722 c -1.549504,2.82094 -3.164738,5.75537 -4.618323,8.33851 0.164149,-0.0739 0.332659,-0.14616 0.496094,-0.22014 1.501966,-2.76676 3.004221,-5.53353 4.506185,-8.30027 -0.130608,0.0607 -0.253703,0.12115 -0.383956,0.1819 z"
       id="path12619"
       clip-path="url(#clipPath12811)" />
    <path
       style="fill:none;fill-opacity:0.25;stroke-width:0.264583"
       d="m 39.784135,288.03358 c -0.469259,1.93491 -0.890876,3.87987 -1.196309,5.84926 -0.289165,1.86447 0.857238,-0.69509 2.082043,-3.53725 -0.306561,-0.82817 -0.5879,-1.52943 -0.885734,-2.31201 z"
       id="path12617"
       clip-path="url(#clipPath12821)" />
    <path
       style="fill:none;fill-opacity:0.25;stroke-width:0.264583"
       d="m 216.82036,102.41442 c -7.17056,0.0718 -14.90052,1.65409 -23.03736,5.10615 -3.03939,1.31784 -6.04594,2.70858 -8.97516,4.25969 -5.29744,2.80266 -10.51117,5.76406 -15.52102,9.05939 -3.66364,2.37833 -7.3084,4.79479 -10.75231,7.48688 -4.62625,3.6497 -9.01877,7.57923 -13.16871,11.76518 -0.45905,0.46495 -0.9091,0.9388 -1.36632,1.4056 0.89699,-0.0595 1.79458,-0.11474 2.69027,-0.19121 3.61175,-0.34949 7.19564,-0.92232 10.77144,-1.5291 3.79027,-0.67131 7.49811,-1.70559 11.17348,-2.83394 5.56721,-1.86424 11.1149,-3.77875 16.71681,-5.53919 6.54109,-2.07439 13.17983,-3.81056 19.88819,-5.24671 4.60559,-0.91162 9.27426,-1.55913 13.97537,-1.63453 0.83188,-0.0133 1.51861,-0.0184 2.13062,-0.006 1.83605,0.0251 3.00182,0.1411 5.40949,0.30696 6.75312,0.57219 13.25814,2.42716 19.57917,4.78524 3.35628,1.3282 6.62064,2.88017 9.63249,4.8891 1.32261,0.88242 2.67349,1.75686 3.81527,2.86339 1.95571,1.89588 4.04523,3.74674 5.55935,6.00377 -4.27194,-22.01937 -22.7914,-41.20824 -48.52107,-40.95047 z"
       id="path10045"
       clip-path="url(#clipPath14622)" />
    <path
       id="path14129"
       clip-path="url(#clipPath14684)"
       style="fill:none;fill-opacity:0.25;stroke-width:0.264583"
       d="m -15.939079,159.86828 c -5.518402,-0.066 -11.032873,0.48836 -16.421736,1.71049 -1.402848,0.37288 -2.816122,0.70813 -4.208529,1.11828 -5.914704,1.74224 -11.550705,4.3551 -16.746781,7.66568 -53.471215,34.86339 -14.161529,106.50569 37.566182,91.70396 0.436876,0.15875 0.870623,0.32534 1.308447,0.48163 6.9323382,2.5052 14.19105628,3.76234 21.4725914,4.71857 7.5408686,1.02354 15.1476776,1.04946 22.7329796,0.68833 5.50593,-0.26305 10.961763,-1.00332 16.375228,-2.01228 8.612693,-1.7984 17.122833,-4.03248 25.606705,-6.35362 11.115931,-3.16146 22.313015,-6.01493 33.647562,-8.27391 8.02858,-1.31668 16.17812,-1.64597 24.29826,-1.86242 3.66249,-0.0276 7.33435,-0.0916 11.00087,-0.0248 48.69727,26.1281 96.69903,-33.69376 61.9926,-75.40884 -2.43504,3.11249 -0.46138,1.21403 -4.42092,4.26227 -10.04924,2.15 1.55083,-1.43376 -5.98619,4.87413 -10.51077,8.79665 1.35614,-4.06141 -6.30246,0.18913 -3.97489,2.20607 1.53037,1.96165 -0.37517,1.99885 -0.26003,0.0798 -0.51324,0.18506 -0.7798,0.23926 -1.94604,0.39562 -4.28282,-0.1063 -5.85339,1.10897 -0.99999,0.77376 0.75736,3.38509 -0.44803,3.7667 -1.47248,0.46615 -2.444,-2.46266 -3.98529,-2.36316 -3.24858,0.2097 -4.7165,5.44115 -8.33644,5.08702 -1.19202,0.44946 -2.31188,1.19096 -3.57601,1.34876 -4.08668,0.51013 -3.48378,-2.18242 -7.36803,1.13843 -0.94051,0.8041 -0.64006,3.03812 -1.86552,3.20962 -10.42191,1.45854 1.03494,-7.45672 -7.5861,0.69557 -1.51851,0.23226 -3.05539,0.36483 -4.55527,0.6966 -0.59554,0.13173 -1.08753,0.71966 -1.69654,0.68626 -5.05473,-0.2775 1.73494,-2.80253 -5.9216,-0.88057 -14.92773,3.74724 4.50279,2.11813 -14.59395,2.73472 -14.57046,0.65686 -3.32307,0.98606 -14.827,-1.10536 -0.33297,-0.0605 0.91191,0.22578 0.84801,0.55811 -0.0895,0.46529 -0.67466,1.02476 -1.12293,0.87126 -12.23944,-4.1912 5.48988,-2.92128 -12.744438,-2.72076 -3.416395,0.77685 -6.871391,1.40133 -10.249503,2.3306 -2.546575,0.70056 -4.886816,2.17453 -7.500834,2.5523 -1.207858,0.17456 -2.317541,-1.05376 -3.534152,-0.95756 -1.274429,0.10074 -2.305681,1.12453 -3.522782,1.51567 -5.851378,1.88044 -5.358846,1.43542 -11.39362,1.54306 -8.622865,-0.51114 -0.437712,-0.91909 -6.902938,1.72134 -0.253971,0.10372 0.122607,-0.71223 -0.132808,-0.81235 -0.282894,-0.11089 -0.490543,0.42256 -0.793233,0.44906 -3.638932,0.31921 -1.007824,-0.83215 -2.515092,-0.0346 -0.05987,0.74671 -0.193418,1.51739 -0.796334,1.79059 -0.514601,0.23318 -0.988184,-0.25399 -1.486731,-0.67593 -0.09173,0.0428 -0.129689,0.0632 -0.227376,0.10852 -0.848611,-0.12773 -1.689902,-0.3524 -2.54093,-0.447 -0.0021,0.003 -0.0046,0.005 -0.0067,0.007 -0.0063,-0.003 -0.01279,-0.005 -0.01912,-0.009 -0.224309,-0.0242 -0.449395,-0.042 -0.675411,-0.0429 -0.115916,0.0519 -0.224295,0.11684 -0.322977,0.19792 0.235635,0.046 0.469595,0.10626 0.702799,0.17932 0.131797,-0.11721 0.228855,-0.22492 0.31471,-0.32504 0.25226,0.13728 0.499433,0.34684 0.745691,0.47077 0.250855,0.12624 0.993875,0.49322 0.717785,0.44183 -0.425084,-0.0791 -1.082209,-0.36901 -1.778186,-0.58704 -0.219097,0.19484 -0.535741,0.40038 -1.088305,0.57877 -0.101162,0.0327 -0.204377,0.0396 -0.309026,0.0326 -0.112604,0.14259 -0.228034,0.28068 -0.353466,0.40152 -0.235157,0.0819 -0.45995,0.22776 -0.700733,0.27492 0.513411,0.24586 0.90061,-0.18195 -2.529044,0.76947 -0.287317,0.26088 -0.495483,0.65471 -0.861963,0.78238 -0.580279,0.20213 -1.418952,-0.29313 -1.836581,0.15761 -0.490759,0.52967 0.126668,1.56135 -0.297656,2.14561 -0.458362,0.63109 -1.283327,1.07902 -2.062923,1.10432 -1.291497,0.042 -2.582064,0.006 -3.872632,-0.0543 -0.0055,0.003 -0.0086,0.008 -0.01447,0.0109 -0.200492,0.10573 -0.418441,0.0439 -0.641305,-0.0475 -0.414589,-0.023 -0.829308,-0.041 -1.243852,-0.0693 -0.07038,0.0177 -0.140798,0.0312 -0.209806,0.047 -0.04043,0.0431 -0.08323,0.0786 -0.123507,0.12144 -0.05364,0.10812 -0.112786,0.20878 -0.164847,0.31988 0.0187,0.008 0.03771,0.0209 0.05633,0.0279 0.228059,0.0862 0.827399,-0.0385 0.710034,0.17518 -0.140271,0.25541 -0.577194,0.13969 -0.86713,0.11059 -0.01599,-0.002 -0.03157,-0.006 -0.04754,-0.008 0.04987,-0.10138 0.1,-0.20231 0.148312,-0.3054 -0.04826,-0.0212 -0.09653,-0.0446 -0.145211,-0.0724 v -5.2e-4 c -0.0055,0.002 -0.01048,0.006 -0.01602,0.008 -0.02303,0.0187 -0.05043,0.0546 -0.07131,0.0667 -0.08457,0.0489 -0.08874,0.0197 -0.05788,-0.0429 -0.0047,1.4e-4 -0.0087,0.003 -0.01344,0.003 -0.154444,-0.001 -0.285536,-0.11398 -0.411344,-0.24443 -0.338882,0.0333 -0.762557,0.0538 -1.256254,0.0599 -0.03433,0.0581 -0.07519,0.10806 -0.106454,0.17002 -0.04084,-0.008 -0.0816,-0.0177 -0.122473,-0.0258 -0.06585,0.20211 -0.125876,0.41426 -0.179834,0.6413 0.103711,-0.20111 0.200085,-0.41195 0.302307,-0.61495 0.641385,0.13211 1.27926,0.2882 1.929598,0.35812 -0.251317,0.51091 -0.536939,0.97756 -1.042313,1.12965 -0.410254,0.12347 -0.914003,0.21308 -1.416968,0.23564 -0.02598,0.15219 -0.03428,0.13906 -0.0186,0.002 -0.932563,0.0385 -1.859931,-0.16652 -2.190564,-0.88884 -0.178928,-0.3909 0.0035,-0.72912 0.331763,-1.04696 -0.949622,-0.0226 -1.677585,-0.0342 -3.188436,-0.0816 -0.257349,-0.008 -0.396532,-0.32821 -0.594796,-0.49248 0.47026,-0.028 0.940509,-0.0563 1.410767,-0.0842 -5.463531,-0.94992 -9.6091608,-1.56298 -12.8452107,-2.24947 -16.8505153,4.39761 -28.8336753,-8.42789 -21.4710413,-31.06064 0.801014,-2.46232 0.925706,-5.26057 2.402955,-7.38715 3.315594,-4.77297 9.60287,-8.87581 14.0647741,-13.36714 -1.253562,-0.26328 -2.5136741,-0.50044 -3.7868489,-0.68161 -3.3808206,-0.4358 -4.5289002,-0.6508 -8.0418862,-0.80512 -0.788148,-0.0346 -1.576371,-0.0568 -2.364714,-0.0662 z m 32.041972,55.61779 c 0.820505,0.14266 1.714574,0.30718 2.593123,0.46664 0.143818,-0.11728 0.303474,-0.23226 0.466639,-0.34675 -0.799396,-0.0588 -1.598743,-0.11863 -2.398304,-0.15916 z m 3.059762,0.11989 c 0.616121,0.0453 1.232372,0.086 1.848466,0.13436 -0.07174,0.10311 -0.137024,0.27014 -0.201022,0.44648 v 5.2e-4 c 0.06506,-3.9e-4 0.117103,-0.003 0.178801,-0.004 0.09602,-0.16253 0.199461,-0.31532 0.342098,-0.4191 -0.106109,-0.008 -0.212219,-0.0164 -0.318327,-0.0248 0.03436,-0.0491 0.06911,-0.0903 0.104903,-0.11576 0.293573,-0.20863 0.623644,-0.0413 0.963766,0.19844 -0.04995,-0.004 -0.09992,-0.008 -0.149862,-0.0114 0.103082,0.0983 0.207552,0.20311 0.313676,0.31316 0.07291,-0.007 0.148286,-0.0142 0.217041,-0.0227 -0.12675,-0.0936 -0.253476,-0.19012 -0.378788,-0.27853 0.313998,0.024 0.628049,0.0495 0.942061,0.0718 0.232214,-0.28071 0.553758,-0.64887 0.886251,-1.02733 -1.196257,-0.0581 -2.392139,-0.12627 -3.588412,-0.18397 -0.28062,0.32297 -0.730982,0.62145 -1.160652,0.92294 z m 3.29954,0.49506 c 0.08674,0.0641 0.173035,0.1231 0.259416,0.17777 0.03805,-0.0556 0.122905,-0.15577 0.187585,-0.2372 0.06943,-0.0128 0.140251,-0.0319 0.208773,-0.0465 -0.103773,0.13666 -0.207467,0.2528 -0.307475,0.33693 0.0015,8.7e-4 0.0031,0.001 0.0047,0.002 0.114219,-0.0475 0.212991,-0.14424 0.310058,-0.24753 0.01834,-0.037 0.03908,-0.0702 0.05788,-0.10645 -0.02104,0.005 -0.04302,0.01 -0.06408,0.0145 0.02351,-0.0309 0.0478,-0.0606 0.06976,-0.091 -0.05442,-0.004 -0.108872,-0.005 -0.163297,-0.009 -0.0482,0.0583 -0.0764,0.096 -0.116272,0.14625 -0.134981,0.0247 -0.300784,0.0418 -0.447001,0.0599 z m 0.720886,-0.12092 c 0.02156,-0.005 0.04402,-0.01 0.06563,-0.015 0.01829,-0.0195 0.03722,-0.0371 0.05581,-0.0558 -0.02703,-0.002 -0.0541,-0.002 -0.08113,-0.004 -0.01348,0.025 -0.02711,0.0495 -0.04031,0.0749 z m 0.04031,-0.0749 c 0.05237,-0.097 0.09917,-0.20293 0.157613,-0.29042 0.104147,-0.15589 -0.01671,0.0463 -0.192237,0.28835 0.01154,8.1e-4 0.02308,0.001 0.03462,0.002 z m 0.08113,0.004 c 0.05133,0.004 0.102669,0.005 0.153995,0.009 0.196595,-0.0495 0.43523,-0.1113 0.663526,-0.17674 -0.145839,-0.0534 -0.291645,-0.086 -0.435116,-0.0682 -0.148546,0.0184 -0.268116,0.12086 -0.382405,0.23616 z m -1.373043,-0.0987 c -0.127489,-0.12153 -0.257237,-0.21291 -0.40721,-0.154 -0.07082,0.0278 -0.134374,0.0652 -0.19327,0.10801 0.200138,0.0156 0.400339,0.0306 0.60048,0.046 z m -1.121379,0.37672 c -0.225543,0.001 -0.567691,-0.002 -0.839225,-0.005 0.223598,0.0416 0.411465,0.0719 0.638721,0.11472 0.05025,0.009 0.1002,0.021 0.150378,0.031 0.01628,-0.0499 0.03322,-0.0945 0.05013,-0.14108 z m 15.968535,-7.1391 c -0.0278,0.007 -0.05295,0.0318 -0.07493,0.0806 -0.03574,0.0794 -0.05198,0.14102 -0.08113,0.21445 0.128669,-0.0123 0.257552,-0.0227 0.386023,-0.0372 -0.07933,-0.15149 -0.161588,-0.27396 -0.22996,-0.25787 z m 0.259932,0.81752 c -0.240504,0.12841 -0.449394,0.25339 -0.649056,0.3607 -0.02767,0.42509 0.112457,0.66513 0.283704,0.80202 0.04309,-0.0666 0.111801,-0.14625 0.146761,-0.1943 0.134169,-0.18444 0.430003,-0.30416 0.470772,-0.51211 -0.105841,-0.0292 -0.212242,-0.064 -0.316776,-0.0785 0.03631,-0.11244 0.03135,-0.26255 0.0646,-0.37776 z m -11.636499,3.11196 c -0.10589,0.0325 -0.440874,0.28459 -1.11311,0.86041 0.0753,0.0957 0.165232,0.20533 0.249597,0.30903 0.58579,-0.67417 1.038744,-1.22316 0.863513,-1.16944 z m -0.275952,1.93993 c 0.113568,0.16157 0.223242,0.32118 0.290938,0.46457 0.469965,-0.12897 1.066709,-0.27738 1.763717,-0.44442 -0.46946,0.0161 -0.939568,0.0187 -1.4087,0.007 -0.21547,-0.005 -0.430564,-0.02 -0.645955,-0.0274 z M 144.83354,249.5765 c 0.28045,0.0152 0.56149,0.0189 0.84181,0.0367 0.0863,0.0191 0.17611,0.0259 0.25889,0.0568 0.3028,0.1132 -0.64731,-0.0228 -0.96738,-0.0682 -0.045,-0.006 -0.0884,-0.0186 -0.13332,-0.0253 z M 1.3006958,254.13022 v 0.001 c -0.72024644,0.49645 -1.46261535,0.9512 -2.21950277,1.37666 0.7391156,-0.44503 1.47872961,-0.89471 2.21950277,-1.3777 z" />
  </g>
</svg>
